<svg width="36" height="44" viewBox="0 0 36 44" fill="none" xmlns="http://www.w3.org/2000/svg">
<g clip-path="url(#clip0_32_68)">
<path d="M30.8049 0.440002H4.76829C2.64671 0.440002 0.92683 2.21295 0.92683 4.4V39.6C0.92683 41.787 2.64671 43.56 4.76829 43.56H30.8049C32.9265 43.56 34.6463 41.787 34.6463 39.6V4.4C34.6463 2.21295 32.9265 0.440002 30.8049 0.440002Z" fill="url(#paint0_linear_32_68)"/>
<path d="M30.8049 0.440002H4.76829C2.64671 0.440002 0.92683 2.21295 0.92683 4.4V39.6C0.92683 41.787 2.64671 43.56 4.76829 43.56H30.8049C32.9265 43.56 34.6463 41.787 34.6463 39.6V4.4C34.6463 2.21295 32.9265 0.440002 30.8049 0.440002Z" stroke="#383733"/>
<path d="M4.76829 11L12.0244 4.39999H30.8049V39.6H4.76829V11Z" fill="white"/>
<path d="M4.76829 11L12.0244 4.39999M4.76829 11V39.6H30.8049V4.39999H12.0244M4.76829 11H12.0244V4.39999" stroke="#383733"/>
<path d="M22.9041 10.12H22.2275C22.1875 9.91935 22.1175 9.74309 22.0174 9.5912C21.9191 9.4394 21.7991 9.31189 21.6572 9.20875C21.5172 9.10377 21.3617 9.025 21.1907 8.97247C21.0197 8.92002 20.8415 8.89371 20.656 8.89371C20.3176 8.89371 20.0111 8.98188 19.7365 9.15815C19.4637 9.33432 19.2463 9.59401 19.0844 9.93721C18.9243 10.2803 18.8444 10.7012 18.8444 11.2C18.8444 11.6987 18.9243 12.1197 19.0844 12.4628C19.2463 12.8059 19.4637 13.0656 19.7365 13.2419C20.0111 13.4181 20.3176 13.5062 20.656 13.5062C20.8415 13.5062 21.0197 13.48 21.1907 13.4275C21.3617 13.375 21.5172 13.2971 21.6572 13.1941C21.7991 13.089 21.9191 12.9606 22.0174 12.8087C22.1175 12.655 22.1875 12.4787 22.2275 12.2799H22.9041C22.8531 12.5744 22.7603 12.8378 22.6258 13.0703C22.4912 13.3028 22.3239 13.5006 22.1238 13.6637C21.9237 13.825 21.6991 13.9478 21.4499 14.0322C21.2025 14.1165 20.9379 14.1587 20.656 14.1587C20.1794 14.1587 19.7556 14.0387 19.3845 13.7987C19.0135 13.5588 18.7216 13.2175 18.5088 12.7749C18.296 12.3325 18.1895 11.8075 18.1895 11.2C18.1895 10.5925 18.296 10.0675 18.5088 9.62499C18.7216 9.18252 19.0135 8.84126 19.3845 8.60124C19.7556 8.36124 20.1794 8.24124 20.656 8.24124C20.9379 8.24124 21.2025 8.28343 21.4499 8.3678C21.6991 8.45218 21.9237 8.57592 22.1238 8.73905C22.3239 8.90031 22.4912 9.09716 22.6258 9.32966C22.7603 9.56031 22.8531 9.82378 22.9041 10.12Z" fill="#383733"/>
<path d="M24.2266 8.32001L25.8854 13.1688H25.9509L27.6097 8.32001H28.3191L26.2674 14.08H25.569L23.5173 8.32001H24.2266Z" fill="#383733"/>
<path d="M7.32927 20.24H28.2439M7.32927 22.88H28.2439M7.32927 25.96H18.8537M7.32927 29.04H19.2805M7.32927 32.12H28.2439M19.7073 35.2H28.2439M7.32927 17.6H28.2439M7.32927 34.76H15.8659" stroke="#383733"/>
</g>
<defs>
<linearGradient id="paint0_linear_32_68" x1="0.500001" y1="20.68" x2="64.0976" y2="20.68" gradientUnits="userSpaceOnUse">
<stop stop-color="#F2C301"/>
<stop offset="0.471" stop-color="#FEFBC8"/>
</linearGradient>
<clipPath id="clip0_32_68">
<rect width="35" height="44" fill="white" transform="translate(0.5)"/>
</clipPath>
</defs>
</svg>
