<svg width="52" height="52" viewBox="0 0 52 52" fill="none" xmlns="http://www.w3.org/2000/svg">
<rect x="22.875" y="1" width="6.25" height="4.83871" fill="#D9D9D9"/>
<path d="M19.75 51L22.875 41.3226H16.625L13.5 51H19.75Z" fill="#665A5A"/>
<path d="M32.25 51L29.125 41.3226H35.375L38.5 51H32.25Z" fill="#665A5A"/>
<rect x="4.125" y="5.83868" width="43.75" height="30.6452" fill="white"/>
<rect x="1" y="36.4839" width="50" height="4.83871" fill="#665A5A"/>
<path d="M29.125 1H22.875V5.03226H29.125V1Z" fill="#665A5A" stroke="#383733"/>
<path d="M3.34375 36.4839H1V41.3226H51V36.4839H48.6562" stroke="#383733"/>
<path d="M22.875 42.129H16.625L13.5 51H19.75L22.875 42.129Z" stroke="#383733"/>
<path d="M32.25 51L29.125 42.129H35.375L38.5 51H32.25Z" stroke="#383733"/>
<path d="M22.875 36.4838H4.125V5.83868H47.875V36.4838H29.125" stroke="#383733"/>
<path d="M18.1874 17.9354C16.9654 20.8211 10.375 19.6248 10.375 22.7742C10.375 24.034 11.0746 25.1092 11.9375 26C12.8004 26.8908 14.7842 27.4315 15.8438 26.8065C17.0284 26.1077 18.5653 23.473 19.75 22.7742L19.7875 22.7521C20.8308 22.1365 21.7192 21.6124 22.875 21.9677C25.3903 22.7412 25.7313 29.7718 28.3437 30.0323C30.5336 30.2506 30.6875 26.8065 29.9062 25.1936C26.9005 18.9887 34.9912 20.3444 33.8125 16.3226C33.0525 13.7294 32.1598 11.2595 29.9062 9.87096C27.0244 8.09536 24.4464 7.82517 21.3124 9.06448C18.2838 10.2621 19.4865 14.8678 18.1874 17.9354Z" fill="#8CBAC4" stroke="#383733"/>
<path d="M41.125 27.6129C41.125 29.5788 39.5851 31.1451 37.7188 31.1451C35.8524 31.1451 34.3125 29.5788 34.3125 27.6129C34.3125 25.647 35.8524 24.0806 37.7188 24.0806C39.5851 24.0806 41.125 25.647 41.125 27.6129Z" fill="#F2C301" stroke="#383733"/>
</svg>
