<svg width="50" height="41" viewBox="0 0 50 41" fill="none" xmlns="http://www.w3.org/2000/svg">
<path d="M31.2259 2.08873C28.4073 3.23673 25.3926 7.67013 25.3926 7.67013C25.3926 7.67013 22.6205 3.35825 19.9759 2.08873C16.8368 0.58183 12.8927 0.693419 11.2259 2.08873C9.55916 3.48405 8.56252 5.15951 7.89258 7.67013C7.24224 10.1073 7.51331 11.6743 7.89258 14.1818C8.59537 18.8281 12.0591 23.019 15.3925 26.2748C18.7258 29.5306 25.3926 34.1818 25.3926 34.1818C25.3926 34.1818 33.3091 28.6004 36.2258 26.2748C39.6608 23.5359 42.6065 18.8281 43.3093 14.1818C43.6886 11.6743 43.7699 9.06548 43.3093 7.67013C42.3547 4.77767 40.8094 3.01899 39.1427 2.08873C37.4759 1.15848 33.9774 0.968071 31.2259 2.08873Z" fill="#F9D0DA" stroke="#383733" stroke-linecap="round"/>
<rect x="0.5" y="19.1744" width="4.83333" height="14.814" rx="1.5" fill="#665A5A" stroke="#383733"/>
<rect x="44.6666" y="19.1744" width="4.83333" height="14.814" rx="1.5" fill="#665A5A" stroke="#383733"/>
<rect x="4.66663" y="12.6628" width="9" height="27.8372" rx="2.5" fill="#665A5A" stroke="#383733"/>
<rect x="36.3334" y="12.6628" width="9" height="27.8372" rx="2.5" fill="#665A5A" stroke="#383733"/>
<rect x="14.6666" y="24.7558" width="20.6667" height="4.58139" fill="#D9D9D9" stroke="#383733"/>
</svg>
