<svg width="36" height="34" viewBox="0 0 36 34" fill="none" xmlns="http://www.w3.org/2000/svg">
<g clip-path="url(#clip0_27_92)">
<path d="M8.68312 29.4482C9.57145 30.1195 11.0267 30.6311 13.3365 30.2029C13.3381 30.8184 13.3442 31.4109 13.3504 31.907C13.3526 32.0864 13.3548 32.2527 13.3568 32.4028C13.3613 32.738 13.3646 32.9924 13.3646 33.1305C13.3646 33.3102 13.3022 33.4887 13.1781 33.6032C13.0642 33.7082 12.8597 33.7947 12.4942 33.7248C5.66796 31.4448 0.75 25.0195 0.75 17.431C0.75 7.92997 8.43748 0.25 17.9479 0.25C27.4297 0.25 35.1449 7.93021 35.1168 17.4303V17.431C35.1168 25.0195 30.1989 31.4444 23.3726 33.7252C23.0073 33.7948 22.8029 33.7083 22.6889 33.6032C22.5647 33.4886 22.5021 33.3099 22.5021 33.1302C22.5021 32.9399 22.5053 32.6073 22.5095 32.1615C22.5116 31.9348 22.514 31.6788 22.5164 31.3973C22.5236 30.5636 22.5307 29.5094 22.5307 28.3397C22.5307 26.9446 22.1482 25.9438 21.6231 25.2948C23.4314 25.0505 25.2742 24.5446 26.7057 23.3477C28.2816 22.03 29.3193 19.9097 29.3193 16.5074C29.3193 14.5987 28.6719 13.0183 27.566 11.7771C27.7919 11.1382 28.2393 9.38813 27.3373 7.12226L27.2933 7.01176L27.1798 6.97618L27.105 7.21473C27.1798 6.97618 27.1795 6.9761 27.1793 6.97602L27.1788 6.97586L27.1776 6.97551L27.1749 6.97469L27.1678 6.97265C27.1623 6.97113 27.1554 6.96929 27.147 6.96723C27.1301 6.96311 27.1073 6.95813 27.0785 6.95307C27.021 6.94293 26.9395 6.9325 26.8336 6.92797C26.6215 6.9189 26.3126 6.93354 25.9013 7.02062C25.0948 7.19142 23.897 7.64035 22.2643 8.73314C20.8872 8.37125 19.4041 8.17669 17.9479 8.17669H17.9476C16.4906 8.1783 15.04 8.36541 13.6313 8.73329C11.9986 7.6404 10.8009 7.19143 9.99434 7.02062C9.58313 6.93354 9.27418 6.9189 9.06213 6.92797C8.95618 6.9325 8.87475 6.94293 8.81717 6.95307C8.78839 6.95813 8.76562 6.96311 8.74876 6.96723C8.74034 6.96929 8.73339 6.97113 8.72792 6.97265L8.72083 6.97469L8.7181 6.97551L8.71695 6.97586L8.71642 6.97602C8.71618 6.9761 8.71593 6.97618 8.79072 7.21473L8.71593 6.97618L8.60244 7.01176L8.55844 7.12226C7.65544 9.39048 8.10448 11.1418 8.33009 11.7791C7.25234 13.0174 6.57643 14.5962 6.57643 16.5074C6.57643 19.9096 7.61397 22.0368 9.18588 23.3581C10.6145 24.559 12.4517 25.0652 14.2494 25.2985C13.88 25.7679 13.5748 26.4285 13.4444 27.2724C12.9469 27.4835 12.1754 27.7179 11.359 27.6434C10.4884 27.5641 9.54339 27.1326 8.80537 25.8777L8.80317 25.8738L8.79344 25.857C8.78511 25.8428 8.77311 25.8227 8.75744 25.7976C8.72613 25.7475 8.6801 25.6771 8.61948 25.5928C8.49848 25.4247 8.31804 25.1996 8.07901 24.9704C7.60255 24.5135 6.87822 24.0264 5.91813 23.9635L5.90997 23.963H5.90179V24.213C5.90179 23.963 5.9017 23.963 5.90161 23.963H5.9014L5.90086 23.963L5.8993 23.963L5.89438 23.963L5.87765 23.9633C5.86359 23.9636 5.84385 23.9642 5.81969 23.9653C5.77157 23.9676 5.70477 23.9722 5.62964 23.9815C5.48919 23.9989 5.28221 24.0366 5.1217 24.1308C5.0388 24.1794 4.94563 24.2563 4.89471 24.3754C4.84047 24.5022 4.85112 24.6367 4.90378 24.761C4.99856 24.9847 5.24718 25.2198 5.64661 25.4883L5.66424 25.5001L5.68231 25.5082L5.68264 25.5084L5.68276 25.5084L5.68314 25.5086L5.68337 25.5087L5.68809 25.511C5.6938 25.5139 5.70362 25.5189 5.71716 25.5263C5.74425 25.5411 5.78627 25.5656 5.8403 25.6016C5.94833 25.6735 6.10453 25.7915 6.2856 25.9706C6.64645 26.3276 7.10985 26.9313 7.48675 27.9055L7.48896 27.9119C7.49171 27.9197 7.49558 27.9304 7.50066 27.9438C7.51081 27.9705 7.52581 28.0078 7.54638 28.0539C7.58751 28.1461 7.65106 28.2738 7.74289 28.4224C7.9265 28.7194 8.22427 29.1015 8.68312 29.4482Z" fill="url(#paint0_linear_27_92)" stroke="#383733" stroke-width="0.5"/>
</g>
<defs>
<linearGradient id="paint0_linear_27_92" x1="0.5" y1="17" x2="35.5" y2="17" gradientUnits="userSpaceOnUse">
<stop stop-color="#F2C301"/>
<stop offset="1" stop-color="#8CBAC4"/>
</linearGradient>
<clipPath id="clip0_27_92">
<rect width="35" height="34" fill="white" transform="translate(0.5)"/>
</clipPath>
</defs>
</svg>
