<svg width="35" height="34" viewBox="0 0 35 34" fill="none" xmlns="http://www.w3.org/2000/svg">
<g clip-path="url(#clip0_272_125)">
<path d="M8.18312 29.4482C9.07145 30.1195 10.5267 30.6311 12.8365 30.2029C12.8381 30.8184 12.8442 31.4109 12.8504 31.907C12.8526 32.0864 12.8548 32.2527 12.8568 32.4028C12.8613 32.738 12.8646 32.9924 12.8646 33.1305C12.8646 33.3102 12.8022 33.4887 12.678 33.6032C12.5642 33.7082 12.3597 33.7947 11.9942 33.7248C5.16796 31.4448 0.25 25.0195 0.25 17.431C0.25 7.92997 7.93748 0.25 17.4479 0.25C26.9297 0.25 34.6449 7.93021 34.6168 17.4303V17.431C34.6168 25.0195 29.6989 31.4444 22.8726 33.7252C22.5073 33.7948 22.3029 33.7083 22.1889 33.6032C22.0647 33.4886 22.0021 33.3099 22.0021 33.1302C22.0021 32.9399 22.0053 32.6075 22.0095 32.1618C22.0116 31.935 22.014 31.6789 22.0164 31.3973C22.0236 30.5636 22.0307 29.5094 22.0307 28.3397C22.0307 26.9446 21.6482 25.9438 21.1231 25.2948C22.9314 25.0505 24.7742 24.5446 26.2057 23.3477C27.7816 22.03 28.8193 19.9097 28.8193 16.5074C28.8193 14.5987 28.1719 13.0183 27.066 11.7771C27.2919 11.1382 27.7393 9.38814 26.8373 7.12226L26.7933 7.01176L26.6798 6.97618L26.605 7.21473C26.6798 6.97618 26.6795 6.9761 26.6793 6.97602L26.6788 6.97586L26.6776 6.97551L26.6749 6.97469L26.6678 6.97265C26.6623 6.97113 26.6554 6.96929 26.6469 6.96723C26.6301 6.96311 26.6073 6.95813 26.5785 6.95307C26.521 6.94293 26.4395 6.9325 26.3336 6.92797C26.1215 6.9189 25.8126 6.93354 25.4013 7.02062C24.5948 7.19142 23.397 7.64035 21.7642 8.73315C20.3872 8.37125 18.9041 8.17669 17.4479 8.17669L17.4476 8.17669C15.9906 8.1783 14.54 8.36541 13.1313 8.73329C11.4986 7.6404 10.3009 7.19143 9.49434 7.02062C9.08313 6.93354 8.77418 6.9189 8.56213 6.92797C8.45618 6.9325 8.37475 6.94293 8.31717 6.95307C8.28839 6.95813 8.26562 6.96311 8.24876 6.96723C8.24034 6.96929 8.23339 6.97113 8.22792 6.97265L8.22082 6.97469L8.2181 6.97551L8.21695 6.97586L8.21642 6.97602C8.21617 6.9761 8.21593 6.97618 8.29071 7.21473L8.21593 6.97618L8.10244 7.01176L8.05844 7.12226C7.15544 9.39048 7.60448 11.1418 7.83009 11.7791C6.75234 13.0174 6.07643 14.5962 6.07643 16.5074C6.07643 19.9096 7.11397 22.0368 8.68588 23.3581C10.1145 24.559 11.9517 25.0653 13.7494 25.2985C13.38 25.7679 13.0748 26.4285 12.9444 27.2724C12.4469 27.4835 11.6754 27.7179 10.859 27.6434C9.98843 27.5641 9.04337 27.1326 8.30535 25.8777L8.30317 25.8738L8.29344 25.857C8.28511 25.8428 8.2731 25.8227 8.25744 25.7976C8.22613 25.7475 8.1801 25.6771 8.11948 25.5929C7.99847 25.4247 7.81804 25.1996 7.57901 24.9704C7.10255 24.5136 6.37822 24.0264 5.41813 23.9635L5.40997 23.963H5.40179V24.213C5.40179 23.963 5.4017 23.963 5.40161 23.963H5.4014H5.40086L5.3993 23.963L5.39438 23.963L5.37765 23.9633C5.36359 23.9636 5.34385 23.9642 5.31968 23.9653C5.27157 23.9676 5.20477 23.9722 5.12964 23.9815C4.98919 23.9989 4.78221 24.0366 4.6217 24.1308C4.5388 24.1794 4.44563 24.2563 4.39471 24.3754C4.34047 24.5022 4.35112 24.6367 4.40378 24.761C4.49856 24.9847 4.74718 25.2198 5.1466 25.4883L5.16424 25.5001L5.18231 25.5082L5.18264 25.5084L5.18276 25.5084L5.18314 25.5086L5.18337 25.5087L5.18809 25.511C5.1938 25.5139 5.20362 25.5189 5.21716 25.5263C5.24425 25.5411 5.28627 25.5656 5.3403 25.6016C5.44833 25.6735 5.60453 25.7915 5.7856 25.9706C6.14644 26.3276 6.60985 26.9313 6.98675 27.9055L6.98896 27.9119C6.99171 27.9197 6.99558 27.9304 7.00066 27.9438C7.01081 27.9705 7.02581 28.0078 7.04638 28.0539C7.0875 28.1461 7.15106 28.2738 7.24289 28.4224C7.4265 28.7194 7.72427 29.1015 8.18312 29.4482Z" fill="#F2C301" stroke="#383733" stroke-width="0.5"/>
</g>
<defs>
<clipPath id="clip0_272_125">
<rect width="35" height="34" fill="white"/>
</clipPath>
</defs>
</svg>
