<svg width="50" height="50" viewBox="0 0 50 50" fill="none" xmlns="http://www.w3.org/2000/svg">
<g clip-path="url(#clip0_102_178)">
<path d="M10.2984 13.451C10.2655 13.5898 10.2365 13.7342 10.2164 13.8827L10.2164 13.8827L9.42664 19.7129L4.86842 14.2972L5.01875 12.888L10.2984 13.451Z" fill="#858733" stroke="#383733"/>
<path d="M8.69154 25.1398L8.69153 25.1398C8.57457 26.004 8.63302 26.843 8.81754 27.6359L6.34886 27.3726C4.7785 27.2047 3.64179 25.7968 3.8094 24.2271L3.80941 24.227L4.47841 17.9542L8.94582 23.2628L8.69154 25.1398Z" fill="#858733" stroke="#383733"/>
<path d="M20.3334 12.5956C19.869 11.3074 18.4468 10.6371 17.1578 11.1047C15.8688 11.5699 15.2008 12.9913 15.6669 14.2803L18.677 22.6176C18.95 23.376 19.5751 23.9543 20.3529 24.1675L28.1555 26.3126C28.3751 26.3731 28.5965 26.4023 28.8145 26.4023C29.9032 26.4023 30.9023 25.6794 31.2052 24.5778C31.5687 23.2566 30.7917 21.8916 29.4703 21.5282L22.9074 19.7239L20.3334 12.5956Z" fill="#383733"/>
<path d="M28.5026 39.6872L27.4825 32.6501C27.3646 31.8376 26.9075 31.114 26.225 30.6576L22.0891 27.8962L20.6363 26.9261C20.6426 26.8838 20.6505 26.8302 20.6603 26.7615L20.7639 25.9961L19.914 25.7625C18.6185 25.4063 17.5767 24.4427 17.1204 23.1796L16.1751 20.561L11.0962 23.4372C11.0962 23.4372 10.8939 24.931 10.8265 25.4288C10.7695 25.8492 10.7582 27.2327 10.9444 27.8299C11.2387 28.7742 12.1223 31.6071 12.1223 31.6071L13.7042 36.6801L11.492 45.0916C11.0849 46.6383 12.0089 48.2213 13.5547 48.6275C13.8019 48.6921 14.0498 48.7236 14.2929 48.7236C15.5762 48.7236 16.7489 47.8634 17.0906 46.5648L19.5143 37.3488C19.6524 36.8229 19.6403 36.2689 19.478 35.7504L18.4394 32.4203L21.9381 34.7562L22.7731 40.5171C22.9823 41.9588 24.2195 42.9974 25.6346 42.9965C25.7727 42.9965 25.9124 42.9869 26.0529 42.9667C27.6353 42.7377 28.7321 41.2694 28.5026 39.6872Z" fill="#383733"/>
<path d="M46.7889 21.9751L46.789 21.9751C47.298 22.3585 47.4004 23.0819 47.0167 23.5914L47.0166 23.5916L40.9947 31.5937L40.9386 31.6683L40.9131 31.7583L38.1478 41.5354C38.1478 41.5355 38.1478 41.5355 38.1477 41.5356C38.023 41.9755 37.6515 42.2998 37.2008 42.3639L37.2004 42.3639L32.521 43.0326L32.4278 43.046L32.3459 43.0922L21.2618 49.3507L21.2613 49.3509C21.0821 49.4524 20.8879 49.5001 20.696 49.5001C20.2912 49.5001 19.9012 49.2885 19.6899 48.9137L19.6898 48.9135C19.3763 48.3582 19.5721 47.6544 20.1269 47.3413L20.127 47.3413L31.4824 40.9294L31.4834 40.9289C31.6072 40.8586 31.7435 40.8124 31.8864 40.7919C31.8864 40.7919 31.8865 40.7919 31.8865 40.7919L35.8091 40.2314L36.131 40.1854L36.2195 39.8725L38.7757 30.8325L38.7757 30.8325C38.8142 30.6961 38.8782 30.5675 38.9648 30.4517C38.9649 30.4515 38.965 30.4514 38.9652 30.4512L45.173 22.2027L45.1731 22.2025C45.5554 21.6941 46.2795 21.5913 46.7889 21.9751Z" fill="#858733" stroke="#383733"/>
<path d="M12.0878 11.6953L12.0878 11.6953C12.3951 11.7281 12.7098 11.6988 13.0289 11.6254L13.8262 11.4418C13.838 11.4172 13.85 11.3927 13.8622 11.3683L13.919 11.2548L14.023 11.1821C14.0637 11.1536 14.1079 11.1269 14.1338 11.1113C14.1383 11.1085 14.1423 11.1061 14.1455 11.1041C14.1753 11.0859 14.1836 11.0798 14.1863 11.0776L14.1864 11.0775C14.5356 10.7954 14.8034 10.4258 14.99 10.0051C15.1158 9.72135 15.2031 9.44045 15.2334 9.15603L15.2334 9.15588C15.2568 8.93683 15.2474 8.71573 15.2176 8.4855C15.0517 7.20214 14.0326 6.15353 12.6942 6.01051C12.6941 6.01051 12.6941 6.01051 12.6941 6.0105L5.91069 5.28682L5.91062 5.28681C5.15741 5.20634 4.40357 5.42823 3.81377 5.90372C3.22452 6.38044 2.84789 7.07043 2.76758 7.82585L2.76755 7.8261C2.59985 9.39606 3.73666 10.8039 5.3069 10.9716L12.0878 11.6953ZM12.0878 11.6953L11.3252 11.6139L11.3252 11.6139L5.30692 10.9716L12.0878 11.6953ZM12.006 20.4468L12.8469 14.2392L12.847 14.2389C12.9301 13.6226 13.1472 13.0572 13.4566 12.5485C13.2973 13.3437 13.3438 14.1911 13.6402 15.0122L13.6402 15.0122L14.9918 18.7558L12.006 20.4468Z" fill="#858733" stroke="#383733"/>
<path d="M20.3847 9.63978C23.0467 9.63978 25.2046 7.48184 25.2046 4.81989C25.2046 2.15794 23.0467 0 20.3847 0C17.7228 0 15.5648 2.15794 15.5648 4.81989C15.5648 7.48184 17.7228 9.63978 20.3847 9.63978Z" fill="#383733"/>
</g>
<defs>
<clipPath id="clip0_102_178">
<rect width="50" height="50" fill="white"/>
</clipPath>
</defs>
</svg>
