<svg width="63" height="65" viewBox="0 0 63 65" fill="none" xmlns="http://www.w3.org/2000/svg">
<mask id="path-2-inside-1_74_52" fill="white">
<path d="M51.4094 32.156C51.4074 30.9417 50.9692 29.7661 50.17 28.8315C49.3709 27.8969 48.261 27.2619 47.0313 27.0357L52.9848 10H24.8439L30.8074 27.0694C29.7658 27.2945 28.8169 27.8155 28.0818 28.5659C27.3467 29.3164 26.8588 30.2623 26.6801 31.283C26.5015 32.3037 26.6403 33.3529 27.0789 34.2967C27.5175 35.2405 28.2359 36.0361 29.1426 36.5821C28.3936 37.662 27.5224 38.6571 26.5452 39.5489C25.0325 40.9525 23.2552 42.0602 21.3106 42.8114C20.3978 42.2971 19.7059 41.4816 19.361 40.5137C19.0162 39.5457 19.0414 38.4898 19.4321 37.5384L19.4984 37.3889L19.6209 37.1076C20.7245 36.7362 21.6732 36.0261 22.3236 35.0847C22.9739 34.1433 23.2903 33.022 23.225 31.8905C23.1597 30.759 22.7162 29.679 21.9616 28.814C21.207 27.949 20.1824 27.346 19.043 27.0965C17.9036 26.8469 16.7115 26.9643 15.647 27.431C14.5826 27.8976 13.7038 28.688 13.1438 29.6825C12.5838 30.677 12.373 31.8215 12.5434 32.9426C12.7139 34.0638 13.2561 35.1005 14.0882 35.8959C13.9093 36.2671 13.7204 36.6432 13.5266 37.0305C12.4531 38.9466 11.6719 41.0038 11.2075 43.1376C10.4372 47.6376 11.6796 51.2424 14.7044 53.2755C16.3305 54.4036 18.2812 55.0069 20.2802 54.9999C23.8119 54.9999 27.385 53.2787 30.8819 51.5944C33.3251 50.3054 35.9028 49.2726 38.5715 48.5135C39.5559 48.2944 40.5511 48.1233 41.5532 48.0008C43.6754 47.8364 45.7448 47.2754 47.6475 46.3487C48.721 45.754 49.6465 44.9376 50.3585 43.9571C51.0704 42.9767 51.5514 41.8564 51.7672 40.6755C52.1197 38.6696 51.7138 36.6076 50.6242 34.8689C51.1398 34.0525 51.4104 33.1135 51.4094 32.156ZM49.3007 32.156C49.3007 32.7822 49.1093 33.3944 48.7507 33.915C48.3921 34.4357 47.8825 34.8415 47.2862 35.0811C46.6899 35.3207 46.0337 35.3834 45.4007 35.2613C44.7677 35.1391 44.1862 34.8376 43.7298 34.3948C43.2734 33.952 42.9626 33.3879 42.8367 32.7737C42.7108 32.1596 42.7754 31.523 43.0224 30.9444C43.2694 30.3659 43.6877 29.8714 44.2243 29.5236C44.761 29.1757 45.3919 28.99 46.0374 28.99C46.9024 28.9912 47.7317 29.3252 48.3434 29.9187C48.9551 30.5122 49.2994 31.3167 49.3007 32.156ZM50.0411 12.0459L44.7834 27.0887C44.5583 27.1419 44.337 27.209 44.1208 27.2896L38.9276 17.0039L33.7179 27.2285C33.4909 27.1527 33.2591 27.0914 33.0238 27.0453L27.7842 12.0459H50.0411ZM31.9736 28.99C32.619 28.99 33.2499 29.1757 33.7866 29.5236C34.3232 29.8714 34.7415 30.3659 34.9885 30.9444C35.2355 31.523 35.3001 32.1596 35.1742 32.7737C35.0483 33.3879 34.7375 33.952 34.2811 34.3948C33.8247 34.8376 33.2432 35.1391 32.6102 35.2613C31.9772 35.3834 31.321 35.3207 30.7247 35.0811C30.1284 34.8415 29.6188 34.4357 29.2602 33.915C28.9016 33.3944 28.7102 32.7822 28.7102 32.156C28.7111 31.3166 29.0552 30.5118 29.667 29.9182C30.2788 29.3247 31.1083 28.9908 31.9736 28.99ZM17.8551 29.0205C18.5005 29.0205 19.1315 29.2062 19.6681 29.5541C20.2048 29.902 20.623 30.3965 20.87 30.975C21.117 31.5535 21.1816 32.1901 21.0557 32.8042C20.9298 33.4184 20.619 33.9825 20.1626 34.4253C19.7062 34.8681 19.1248 35.1696 18.4917 35.2918C17.8587 35.414 17.2026 35.3513 16.6063 35.1116C16.01 34.872 15.5003 34.4662 15.1417 33.9455C14.7832 33.4249 14.5918 32.8128 14.5918 32.1866C14.5926 31.3474 14.9365 30.5429 15.548 29.9493C16.1594 29.3558 16.9902 29.0218 17.8551 29.0205ZM49.6883 40.3251C49.5248 41.2111 49.1624 42.0513 48.6268 42.7862C48.0911 43.5211 47.3954 44.1327 46.589 44.5776C44.9164 45.367 43.1048 45.8414 41.25 45.9758C40.2031 46.1221 39.1214 46.2732 38.0629 46.5271C35.2452 47.319 32.5238 48.4037 29.946 49.7623C24.7048 52.2871 20.1726 54.468 15.912 51.5992C12.7862 49.4971 12.9303 45.6078 13.2947 43.4767C13.7229 41.5365 14.4388 39.6667 15.42 37.9257C15.5724 37.6203 15.7215 37.323 15.8673 37.0273C16.3125 37.1992 16.7793 37.3127 17.2554 37.3648C16.8332 38.8095 16.9506 40.3526 17.5871 41.7215C18.2237 43.0904 19.3383 44.197 20.7341 44.846L21.14 45.0485L21.569 44.8991C23.9629 44.0615 26.1499 42.7477 27.9896 41.0419C29.2044 39.9321 30.2717 38.6796 31.1668 37.3134C32.3117 37.4823 33.4822 37.2876 34.5036 36.7582C35.5251 36.2289 36.3427 35.3933 36.8346 34.3762C37.3264 33.3591 37.4661 32.2149 37.2328 31.1145C36.9995 30.014 36.4057 29.0162 35.54 28.27L38.916 21.6469L42.3268 28.3969C41.3563 29.3043 40.7733 30.5327 40.6935 31.838C40.6137 33.1433 41.043 34.4299 41.8961 35.4422C42.7492 36.4545 43.9636 37.1184 45.298 37.3019C46.6324 37.4854 47.9892 37.1751 49.0986 36.4326C49.7139 37.6366 49.9198 38.9989 49.6867 40.3235L49.6883 40.3251Z"/>
</mask>
<path d="M51.4094 32.156C51.4074 30.9417 50.9692 29.7661 50.17 28.8315C49.3709 27.8969 48.261 27.2619 47.0313 27.0357L52.9848 10H24.8439L30.8074 27.0694C29.7658 27.2945 28.8169 27.8155 28.0818 28.5659C27.3467 29.3164 26.8588 30.2623 26.6801 31.283C26.5015 32.3037 26.6403 33.3529 27.0789 34.2967C27.5175 35.2405 28.2359 36.0361 29.1426 36.5821C28.3936 37.662 27.5224 38.6571 26.5452 39.5489C25.0325 40.9525 23.2552 42.0602 21.3106 42.8114C20.3978 42.2971 19.7059 41.4816 19.361 40.5137C19.0162 39.5457 19.0414 38.4898 19.4321 37.5384L19.4984 37.3889L19.6209 37.1076C20.7245 36.7362 21.6732 36.0261 22.3236 35.0847C22.9739 34.1433 23.2903 33.022 23.225 31.8905C23.1597 30.759 22.7162 29.679 21.9616 28.814C21.207 27.949 20.1824 27.346 19.043 27.0965C17.9036 26.8469 16.7115 26.9643 15.647 27.431C14.5826 27.8976 13.7038 28.688 13.1438 29.6825C12.5838 30.677 12.373 31.8215 12.5434 32.9426C12.7139 34.0638 13.2561 35.1005 14.0882 35.8959C13.9093 36.2671 13.7204 36.6432 13.5266 37.0305C12.4531 38.9466 11.6719 41.0038 11.2075 43.1376C10.4372 47.6376 11.6796 51.2424 14.7044 53.2755C16.3305 54.4036 18.2812 55.0069 20.2802 54.9999C23.8119 54.9999 27.385 53.2787 30.8819 51.5944C33.3251 50.3054 35.9028 49.2726 38.5715 48.5135C39.5559 48.2944 40.5511 48.1233 41.5532 48.0008C43.6754 47.8364 45.7448 47.2754 47.6475 46.3487C48.721 45.754 49.6465 44.9376 50.3585 43.9571C51.0704 42.9767 51.5514 41.8564 51.7672 40.6755C52.1197 38.6696 51.7138 36.6076 50.6242 34.8689C51.1398 34.0525 51.4104 33.1135 51.4094 32.156ZM49.3007 32.156C49.3007 32.7822 49.1093 33.3944 48.7507 33.915C48.3921 34.4357 47.8825 34.8415 47.2862 35.0811C46.6899 35.3207 46.0337 35.3834 45.4007 35.2613C44.7677 35.1391 44.1862 34.8376 43.7298 34.3948C43.2734 33.952 42.9626 33.3879 42.8367 32.7737C42.7108 32.1596 42.7754 31.523 43.0224 30.9444C43.2694 30.3659 43.6877 29.8714 44.2243 29.5236C44.761 29.1757 45.3919 28.99 46.0374 28.99C46.9024 28.9912 47.7317 29.3252 48.3434 29.9187C48.9551 30.5122 49.2994 31.3167 49.3007 32.156ZM50.0411 12.0459L44.7834 27.0887C44.5583 27.1419 44.337 27.209 44.1208 27.2896L38.9276 17.0039L33.7179 27.2285C33.4909 27.1527 33.2591 27.0914 33.0238 27.0453L27.7842 12.0459H50.0411ZM31.9736 28.99C32.619 28.99 33.2499 29.1757 33.7866 29.5236C34.3232 29.8714 34.7415 30.3659 34.9885 30.9444C35.2355 31.523 35.3001 32.1596 35.1742 32.7737C35.0483 33.3879 34.7375 33.952 34.2811 34.3948C33.8247 34.8376 33.2432 35.1391 32.6102 35.2613C31.9772 35.3834 31.321 35.3207 30.7247 35.0811C30.1284 34.8415 29.6188 34.4357 29.2602 33.915C28.9016 33.3944 28.7102 32.7822 28.7102 32.156C28.7111 31.3166 29.0552 30.5118 29.667 29.9182C30.2788 29.3247 31.1083 28.9908 31.9736 28.99ZM17.8551 29.0205C18.5005 29.0205 19.1315 29.2062 19.6681 29.5541C20.2048 29.902 20.623 30.3965 20.87 30.975C21.117 31.5535 21.1816 32.1901 21.0557 32.8042C20.9298 33.4184 20.619 33.9825 20.1626 34.4253C19.7062 34.8681 19.1248 35.1696 18.4917 35.2918C17.8587 35.414 17.2026 35.3513 16.6063 35.1116C16.01 34.872 15.5003 34.4662 15.1417 33.9455C14.7832 33.4249 14.5918 32.8128 14.5918 32.1866C14.5926 31.3474 14.9365 30.5429 15.548 29.9493C16.1594 29.3558 16.9902 29.0218 17.8551 29.0205ZM49.6883 40.3251C49.5248 41.2111 49.1624 42.0513 48.6268 42.7862C48.0911 43.5211 47.3954 44.1327 46.589 44.5776C44.9164 45.367 43.1048 45.8414 41.25 45.9758C40.2031 46.1221 39.1214 46.2732 38.0629 46.5271C35.2452 47.319 32.5238 48.4037 29.946 49.7623C24.7048 52.2871 20.1726 54.468 15.912 51.5992C12.7862 49.4971 12.9303 45.6078 13.2947 43.4767C13.7229 41.5365 14.4388 39.6667 15.42 37.9257C15.5724 37.6203 15.7215 37.323 15.8673 37.0273C16.3125 37.1992 16.7793 37.3127 17.2554 37.3648C16.8332 38.8095 16.9506 40.3526 17.5871 41.7215C18.2237 43.0904 19.3383 44.197 20.7341 44.846L21.14 45.0485L21.569 44.8991C23.9629 44.0615 26.1499 42.7477 27.9896 41.0419C29.2044 39.9321 30.2717 38.6796 31.1668 37.3134C32.3117 37.4823 33.4822 37.2876 34.5036 36.7582C35.5251 36.2289 36.3427 35.3933 36.8346 34.3762C37.3264 33.3591 37.4661 32.2149 37.2328 31.1145C36.9995 30.014 36.4057 29.0162 35.54 28.27L38.916 21.6469L42.3268 28.3969C41.3563 29.3043 40.7733 30.5327 40.6935 31.838C40.6137 33.1433 41.043 34.4299 41.8961 35.4422C42.7492 36.4545 43.9636 37.1184 45.298 37.3019C46.6324 37.4854 47.9892 37.1751 49.0986 36.4326C49.7139 37.6366 49.9198 38.9989 49.6867 40.3235L49.6883 40.3251Z" fill="#383733" stroke="#383733" stroke-width="2" mask="url(#path-2-inside-1_74_52)"/>
</svg>
