<svg width="66" height="65" viewBox="0 0 66 65" fill="none" xmlns="http://www.w3.org/2000/svg">
<g clip-path="url(#clip0_74_55)">
<path d="M30.2172 51.6424L30.2313 51.6392L30.2451 51.6352C31.8078 51.1802 33.2051 50.2227 33.9458 48.7247C34.4702 47.7543 34.6664 46.6968 34.7359 45.6095C34.7848 44.8451 34.7717 44.0327 34.7585 43.2135C34.7531 42.8799 34.7477 42.5451 34.7464 42.212C34.7608 39.638 34.756 37.0553 34.7512 34.4755C34.7488 33.1865 34.7464 31.8982 34.7464 30.6121V30.1121H34.2464H30.0378H29.5378V30.6121C29.5378 32.4519 29.5334 34.2655 29.5291 36.0743L29.5291 36.0887C29.5248 37.8925 29.5205 39.6914 29.5205 41.5055C29.5205 41.9889 29.5256 42.4558 29.5304 42.9005C29.5374 43.5415 29.5438 44.1365 29.5339 44.6686C29.5256 45.1143 29.5058 45.4933 29.4675 45.7944C29.4272 46.111 29.373 46.2812 29.332 46.352L29.3224 46.3685L29.3142 46.3857C29.096 46.8382 28.7122 47.0466 28.2589 47.1179C27.8047 47.1893 27.324 47.1114 27.0163 47.012C26.4305 46.7173 26.1193 46.3081 25.7041 45.6111C25.6892 45.5852 25.6742 45.559 25.6595 45.5332C25.6187 45.4619 25.5794 45.3932 25.5471 45.3396C25.525 45.3027 25.4991 45.261 25.4729 45.2243C25.4602 45.2064 25.4406 45.18 25.4157 45.1528L25.4145 45.1515C25.3999 45.1354 25.3351 45.0641 25.2295 45.0188L24.9922 44.9171L24.7718 45.0516C24.2005 45.4006 23.63 45.7506 23.0599 46.1004L23.058 46.1016C22.4885 46.451 21.9194 46.8001 21.3497 47.1481L20.9619 47.3849L21.1607 47.7935C21.7622 49.0299 22.6594 50.1235 23.8293 50.8409L23.8333 50.8433C25.5675 51.8844 27.8595 52.1837 30.2172 51.6424ZM37.7098 49.498L37.7186 49.5079L37.728 49.5174C39.4913 51.3072 42.5111 52.114 45.245 51.8511C47.9554 51.5904 50.5819 50.2499 51.42 47.5236L51.4389 47.4688C51.5139 47.2509 51.9309 46.0158 51.5957 44.1379C51.4153 43.0179 50.9543 41.9786 50.0065 41.0124C49.0704 40.0582 47.6787 39.1947 45.6675 38.3777C45.3782 38.245 45.1019 38.1278 44.8366 38.0153C44.4239 37.8403 44.0381 37.6766 43.6717 37.4838C43.0991 37.1823 42.7361 36.8843 42.5712 36.5384C42.4291 35.9961 42.4327 35.7612 42.4986 35.5238L42.5005 35.5169L42.5022 35.51C42.6021 35.1055 42.8902 34.8251 43.3032 34.6709C43.7241 34.5136 44.2466 34.503 44.7135 34.643C45.3068 34.8432 45.8852 35.3071 46.2422 36.0753L46.4846 36.597L46.9674 36.2843C48.503 35.2898 48.8199 35.0882 49.557 34.6192C49.7516 34.4955 49.9754 34.3531 50.2586 34.1726L50.6827 33.9023L50.4099 33.4798C49.9125 32.7093 49.6259 32.3183 49.2673 31.9534C47.9801 30.5193 46.2347 29.8168 43.5883 29.8706L43.5616 29.8711L43.5352 29.8745C43.3145 29.9026 43.0925 29.9315 42.8712 29.9602C42.6496 29.989 42.4288 30.0177 42.2095 30.0456L42.1795 30.0494L42.1503 30.0568C40.8142 30.3942 39.4975 31.103 38.6985 32.1028C37.5277 33.4381 37.1261 35.2482 37.3505 36.9374C37.5748 38.625 38.4321 40.2543 39.8621 41.2201C40.9869 42.0616 42.3337 42.6312 43.4932 43.1215C43.7105 43.2134 43.9211 43.3024 44.1225 43.39C44.7797 43.6758 45.3317 43.9412 45.7451 44.2321C46.152 44.5184 46.3699 44.7916 46.4495 45.0752C46.5452 45.5363 46.5006 45.8786 46.3896 46.1335C46.2775 46.3906 46.0788 46.6024 45.7935 46.7689C45.2091 47.1099 44.3063 47.2302 43.3375 47.1154C42.6535 46.9707 42.1405 46.7294 41.6962 46.3777C41.2403 46.0168 40.8342 45.5221 40.3897 44.839L40.131 44.4413L39.7203 44.6789C38.036 45.6532 38.0358 45.6533 36.3053 46.6486L36.3035 46.6496L35.9085 46.8767L36.0981 47.2911C36.4848 48.1359 36.904 48.6014 37.4393 49.1959C37.5263 49.2924 37.6163 49.3924 37.7098 49.498ZM10.5152 54.5V10.5H54.5152V54.5H10.5152Z" fill="#F7DF1E" stroke="#383733"/>
<g clip-path="url(#clip1_74_55)">
<path d="M326.84 77.4C327.815 77.375 328.965 77.35 330.14 77.35C350.99 77.35 370.715 82.2 388.215 90.85L387.44 90.5C403.39 98.275 416.49 109.775 425.965 123.875L426.19 124.225C433.665 135.125 438.115 148.6 438.115 163.1C438.115 164.15 438.09 165.2 438.04 166.225V166.075C437.265 180.55 430.69 193.325 420.59 202.275L420.54 202.325C415.015 207.75 408.34 212 400.915 214.7L400.54 214.825C396.374 215.658 394.082 215.033 393.665 212.95C393.249 210.867 395.124 208.575 399.29 206.075C410.59 199.225 418.765 188.175 421.74 175.15L421.815 174.825C421.89 173.775 421.94 172.55 421.94 171.3C421.94 163.525 420.09 156.175 416.815 149.675L416.94 149.95C411.515 138.625 403.415 129.325 393.44 122.6L393.19 122.45C378.265 112.85 360.365 106.55 341.115 104.975L340.715 104.95C334.165 103.975 326.615 103.425 318.915 103.425C298.89 103.425 279.765 107.2 262.165 114.075L263.215 113.7C266.84 122.175 269.115 132 269.44 142.3V142.425C269.04 163.55 257.69 181.925 240.815 192.175L240.54 192.325C232.79 197.825 223.94 202.65 214.515 206.4L213.64 206.7C207.915 209.5 201.19 211.125 194.09 211.125C193.265 211.125 192.465 211.1 191.665 211.05H191.79C175.974 207.733 172.224 193.983 180.54 169.8C184.165 159.275 189.24 150.15 195.665 142.125L195.515 142.3C203.74 131.55 212.765 122.125 222.74 113.775L223.015 113.55L220.565 109.9C215.99 102.1 211.79 93.025 208.415 83.55L208.065 82.4C205.565 74.0667 203.482 66.1584 201.815 58.675L200.565 49.925L188.065 73.65C177.232 93.65 166.815 111.142 156.815 126.125L153.065 132.375C157.265 142.575 160.365 154.4 161.765 166.75L161.815 167.375C161.915 168.55 161.965 169.95 161.965 171.35C161.965 190.3 152.615 207.05 138.265 217.275L138.09 217.4C131.24 221.625 123.065 226 114.59 229.9L113.09 230.525C104.265 234.35 94.0402 236.85 83.3152 237.4H83.0902C82.2653 237.45 81.2903 237.5 80.3152 237.5C74.0652 237.5 68.1402 236.075 62.8402 233.55L63.0902 233.65C59.9152 230.925 57.9152 226.925 57.9152 222.45C57.9152 220.175 58.4402 218 59.3652 216.075L59.3152 216.175C69.3152 202.15 79.1652 189.95 89.6402 178.3L89.3152 178.675L116.815 143.7L111.84 132.45C107.84 125.1 104.015 116.425 100.94 107.425L100.59 106.225C98.0902 97.8917 96.0069 89.9834 94.3402 82.5L93.0902 73.75L80.5902 103.75C70.6069 127.067 61.4402 147.058 53.0902 163.725C40.6402 188.725 30.2236 207.892 21.8402 221.225L19.3402 224.975C9.3569 240.792 -0.22641 248.7 -9.40976 248.7C-18.5931 248.7 -24.8181 242.867 -28.0847 231.2C-30.4847 222.6 -31.8848 212.725 -31.8848 202.525C-31.8848 201.625 -31.8847 200.725 -31.8597 199.825V199.95L-29.3598 182.45V183.7C-36.0264 199.517 -42.6931 214.092 -49.3598 227.425C-53.7848 236.075 -58.3347 243.45 -63.4348 250.4L-63.1097 249.925C-68.2597 255.325 -75.5098 258.675 -83.5348 258.675C-83.6097 258.675 -83.6598 258.675 -83.7348 258.675C-84.2598 258.725 -84.8597 258.725 -85.4597 258.725C-91.7848 258.725 -97.5348 256.325 -101.885 252.4L-101.86 252.425C-110.585 243.475 -117.06 232.3 -120.41 219.825L-120.535 219.3C-124.635 207.925 -126.985 194.775 -126.985 181.075C-126.985 179.3 -126.935 177.55 -126.86 175.825V176.075C-124.885 156.175 -120.91 137.95 -115.085 120.575L-115.61 122.35L-160.585 148.6V149.85C-154.06 163.4 -150.235 179.3 -150.235 196.1C-150.235 199.175 -150.36 202.225 -150.61 205.225L-150.585 204.825C-151.91 230.575 -160.135 254.15 -173.41 274.075L-173.085 273.575C-187.01 295.675 -207.085 312.75 -230.935 322.625L-231.76 322.925C-245.185 328.95 -260.885 332.475 -277.385 332.475C-287.835 332.475 -297.985 331.075 -307.585 328.425L-306.785 328.6C-314.735 325.925 -321.235 320.625 -325.36 313.775L-325.435 313.625C-331.26 305.175 -334.935 294.85 -335.51 283.725V283.575C-335.785 281.05 -335.935 278.125 -335.935 275.15C-335.935 262.325 -333.01 250.175 -327.785 239.35L-328.01 239.85C-313.66 215.375 -293.81 195.55 -270.11 181.6L-269.36 181.2C-252.585 169.575 -233.31 158.3 -213.185 148.475L-210.535 147.3L-204.285 143.55C-211.785 137.717 -225.535 127.717 -245.535 113.55C-272.26 95.65 -295.485 77.575 -317.385 58.025L-316.76 58.575C-337.935 40.35 -353.36 16 -360.285 -11.725L-360.485 -12.675C-361.135 -16.525 -361.51 -20.95 -361.51 -25.45C-361.51 -39.55 -357.885 -52.8 -351.535 -64.325L-351.735 -63.9C-337.735 -94 -318.335 -119.375 -294.535 -139.775L-294.235 -140.025C-268.485 -164.35 -239.335 -185.525 -207.685 -202.675L-205.51 -203.75C-177.235 -220.075 -144.21 -235.25 -109.785 -247.425L-105.535 -248.725C-73.5598 -260.425 -36.6347 -267.275 1.86526 -267.4H1.91525C3.66525 -267.45 5.74026 -267.5 7.81525 -267.5C38.8402 -267.5 68.1902 -260.325 94.2903 -247.55L93.1402 -248.075C115.64 -237.825 132.49 -218.525 139.24 -194.925L139.39 -194.325C141.465 -186.275 142.64 -177.025 142.64 -167.5C142.64 -151.7 139.365 -136.65 133.49 -123L133.765 -123.725C123.065 -97.8 107.84 -75.725 88.8402 -57.55L88.7652 -57.475C69.5152 -38.4 46.4402 -23.15 20.8152 -12.975L19.4402 -12.5C-7.40973 -0.974976 -38.5847 6.27502 -71.3098 7.47501L-71.7848 7.50003C-76.5847 8.05002 -82.1347 8.35004 -87.7597 8.35004C-102.56 8.35004 -116.835 6.22501 -130.335 2.25003L-129.26 2.52502C-141.335 -1.32498 -151.76 -7.29999 -160.61 -15.05L-160.51 -14.975C-166.71 -20.025 -171.76 -26.25 -175.36 -33.325L-175.51 -33.65C-178.01 -40.3167 -178.218 -44.275 -176.135 -45.525C-174.051 -46.775 -172.593 -46.9833 -171.76 -46.15L-165.51 -39.9C-158.535 -33.425 -150.21 -28.325 -141.01 -25.075L-140.51 -24.925C-127.86 -20.525 -113.26 -17.975 -98.0847 -17.975C-93.2097 -17.975 -88.4097 -18.225 -83.6848 -18.75L-84.2598 -18.7C-43.8098 -23.475 -7.33475 -37.275 24.1403 -58.025L23.2152 -57.45C49.8152 -73.275 71.3402 -95.025 86.4902 -120.95L86.9402 -121.8C94.4652 -132.85 98.9652 -146.5 98.9652 -161.2C98.9652 -170.225 97.2652 -178.875 94.1652 -186.825L94.3402 -186.35C84.9902 -201.125 69.8652 -211.525 52.2152 -214.4L51.8652 -214.45C38.1652 -217.825 22.4152 -219.775 6.24023 -219.775C-6.78476 -219.775 -19.5348 -218.525 -31.8597 -216.125L-30.6098 -216.325C-72.7848 -208.725 -110.485 -195.7 -145.26 -177.8L-142.985 -178.875C-245.451 -127.208 -298.36 -74.3 -301.71 -20.15V-18.925C-301.71 2.90002 -293.135 22.725 -279.16 37.375L-279.185 37.35C-263.26 55.05 -245.66 70.675 -226.435 84.175L-225.46 84.825C-207.935 97.925 -192.435 111.45 -178.01 126.05L-177.985 126.1L-175.485 128.6L-95.4847 84.875C-86.3597 71.675 -75.3848 60.525 -62.7848 51.525L-62.3848 51.25C-52.3848 42.85 -39.6848 37.375 -25.7598 36.275L-25.5348 36.25C-25.0348 36.2 -24.4597 36.2 -23.8597 36.2C-14.5348 36.2 -6.53476 41.825 -3.08475 49.875L-3.03476 50.025C-0.40976 55.9 1.11523 62.775 1.11523 70C1.11523 72.2 0.965271 74.375 0.690247 76.525L0.71524 76.275L-1.70975 88.6L2.04025 86.1C4.64026 84.125 7.91525 82.95 11.4652 82.95C13.7152 82.95 15.8402 83.425 17.7653 84.275L17.6653 84.225C22.4652 85.475 25.9402 89.775 25.9402 94.875C25.9402 95.75 25.8402 96.6 25.6402 97.425L25.6653 97.35L21.9153 111.1C14.4153 141.083 9.42358 162.742 6.94025 176.075C5.69025 180.4 4.99026 185.375 4.99026 190.525C4.99026 191.6 5.01526 192.65 5.09024 193.7V193.55C5.50693 198.55 6.1319 201.05 6.96524 201.05C7.79858 201.05 9.45691 198.55 11.9402 193.55L15.6902 184.8C16.5236 184.8 16.5236 185.217 15.6902 186.05L29.4402 157.3C61.9402 85.6667 79.4319 45.6667 81.9152 37.3L89.4152 13.575C90.2485 11.9084 93.5819 10.25 99.4153 8.60001C105.34 7 112.115 6.07501 119.115 6.07501C119.69 6.07501 120.265 6.07501 120.815 6.10004H120.74C132.407 6.10004 138.24 9.01669 138.24 14.85L136.99 21.1C134.19 28.8 131.415 38.425 129.265 48.275L128.99 49.85C128.49 53.075 128.19 56.775 128.19 60.575C128.19 65.625 128.69 70.55 129.665 75.325L129.59 74.85L130.84 79.825C133.39 90.25 137.265 99.4 142.34 107.75L142.09 107.325C152.074 90.675 161.657 73.6 170.84 56.1C178.09 44.025 184.84 30.025 190.265 15.375L190.84 13.625C192.715 4.20001 194.865 -3.75 197.49 -11.5L197.09 -10.1C197.924 -12.6 201.482 -14.475 207.765 -15.725C213.715 -16.925 220.54 -17.6 227.515 -17.6H228.415H228.365C240.032 -17.6 246.257 -14.6833 247.04 -8.84998L244.54 -3.87497C241.565 4.52502 238.965 14.625 237.215 25L237.065 26.125C236.84 28.55 236.69 31.35 236.69 34.2C236.69 40.175 237.29 46.025 238.415 51.675L238.315 51.1V56.075C241.19 66.975 245.465 76.55 251.065 85.225L250.815 84.825L254.565 93.575C275.44 83.325 299.99 77.325 325.94 77.325H326.915H326.865L326.84 77.4ZM-209.135 258.725C-191.76 240.775 -181.035 216.275 -181.035 189.275C-181.035 178.85 -182.635 168.8 -185.585 159.35L-185.385 160.05L-205.385 172.55C-225.785 184.175 -243.435 197.15 -259.41 211.9L-259.21 211.725C-271.335 222.875 -280.285 237.3 -284.685 253.575L-284.835 254.2C-288.585 269.617 -286.71 279.617 -279.21 284.2C-274.635 286.3 -269.26 287.525 -263.635 287.525C-257.485 287.525 -251.66 286.075 -246.535 283.475L-246.76 283.575C-231.91 278.175 -219.335 269.6 -209.335 258.625L-209.26 258.55L-209.135 258.725ZM-41.7097 143.625C-37.5431 132.792 -32.9598 119.875 -27.9598 104.875C-21.2931 84.875 -19.0014 73.2167 -21.0847 69.9C-23.1681 66.5834 -27.1264 66.1667 -32.9597 68.65C-39.9098 72.025 -45.7347 76.65 -50.3847 82.325L-50.4597 82.425C-55.6598 89 -60.6097 96.35 -65.0098 104.075L-65.4598 104.925C-70.5098 113.2 -74.7848 122.725 -77.7598 132.825L-77.9847 133.675C-82.8098 146.75 -85.6098 161.875 -85.6098 177.625C-85.6098 179.75 -85.5598 181.85 -85.4597 183.95V183.65C-84.6264 200.3 -81.9597 209.258 -77.4597 210.525C-72.9597 211.792 -67.7514 205.75 -61.8347 192.4C-56.1097 182.075 -51.0098 170.075 -47.2097 157.5L-46.8597 156.15C-44.3764 150.25 -42.6764 146.075 -41.7598 143.625H-41.7097ZM96.9402 209.875C114.265 202.1 126.465 185.725 128.165 166.35L128.19 166.15V164.9L114.44 182.4L89.4652 209.9C89.0902 210.2 88.8402 210.65 88.8402 211.15C88.8402 211.65 89.0902 212.1 89.4402 212.4C90.2402 213.217 92.7402 212.383 96.9402 209.9V209.875ZM204.415 186.125C223.315 180.725 236.915 163.6 236.915 143.325C236.915 143 236.915 142.675 236.915 142.35V142.4C236.665 137.4 235.765 132.7 234.29 128.25L234.39 128.625C224.665 137.275 216.69 147.625 210.915 159.3L210.64 159.875C203.124 174.858 201.024 183.592 204.34 186.075L204.415 186.125Z" fill="black"/>
</g>
</g>
<defs>
<clipPath id="clip0_74_55">
<rect x="0.0152283" width="65" height="65" rx="5" fill="white"/>
</clipPath>
<clipPath id="clip1_74_55">
<rect width="800" height="800" fill="white" transform="translate(-361.485 -367.5)"/>
</clipPath>
</defs>
</svg>
