<svg width="51" height="51" viewBox="0 0 51 51" fill="none" xmlns="http://www.w3.org/2000/svg">
<path d="M39.1825 27.0676C39.1825 37.1476 30.549 45.3646 19.8413 45.3646C9.13357 45.3646 0.5 37.1476 0.5 27.0676C0.5 16.9876 9.13357 8.77063 19.8413 8.77063C30.549 8.77063 39.1825 16.9876 39.1825 27.0676Z" fill="#E7F4F9" stroke="#383733"/>
<path d="M9.5238 11.6542C9.5238 11.6542 17.3039 11.7371 22.2222 12.4061C27.0972 13.0692 34.5238 15.0376 34.5238 15.0376" stroke="#383733" stroke-linecap="round"/>
<path d="M5.55554 14.6616C5.55554 14.6616 15.2783 15.2257 21.4286 16.1654C27.7013 17.1237 37.8571 19.9999 37.8571 19.9999" stroke="#383733" stroke-linecap="round"/>
<path d="M2.77783 18.421C2.77783 18.421 12.7295 18.7752 19.0477 19.5488C26.8844 20.5084 38.8889 23.3082 38.8889 23.3082" stroke="#383733" stroke-linecap="round"/>
<path d="M6.74604 18.797C6.74604 18.797 4.50116 23.0442 3.57143 25.9399C2.60734 28.9425 2.14282 35 2.14282 35" stroke="#383733" stroke-linecap="round"/>
<path d="M10.7143 19.173C10.7143 19.173 8.58626 23.921 7.53974 27.0677C6.05974 31.5179 4.76196 38.7218 4.76196 38.7218" stroke="#383733" stroke-linecap="round"/>
<path d="M15.0793 19.5488C15.0793 19.5488 12.6282 25.4731 11.5079 29.3233C10.0694 34.2668 8.57141 42.8571 8.57141 42.8571" stroke="#383733" stroke-linecap="round"/>
<path d="M19.4444 19.9248C19.4444 19.9248 17.0105 26.5439 15.873 30.8271C14.4786 36.0776 13.0952 44.3609 13.0952 44.3609" stroke="#383733" stroke-linecap="round"/>
<path d="M24.6031 20.6766C24.6031 20.6766 22.5148 22.0082 21.0317 23.3082C19.2332 24.8847 16.6666 28.1954 16.6666 28.1954" stroke="#383733" stroke-linecap="round"/>
<path d="M28.9682 21.4286C28.9682 21.4286 24.3534 24.9663 22.2222 27.0677C18.6774 30.5629 14.6825 36.4662 14.6825 36.4662" stroke="#383733" stroke-linecap="round"/>
<path d="M32.9365 22.1804C32.9365 22.1804 26.9983 26.9243 23.8095 30.0752C19.3037 34.5273 13.4921 42.8571 13.4921 42.8571" stroke="#383733" stroke-linecap="round"/>
<path d="M37.3015 22.9324C37.3015 22.9324 30.5915 27.9099 26.9841 31.9549C22.9031 36.531 16.6666 45.1128 16.6666 45.1128" stroke="#383733" stroke-linecap="round"/>
<path d="M39.2857 26.6918C39.2857 26.6918 33.4237 31.0718 30.1587 34.5865C26.6091 38.4075 22.619 45.1128 22.619 45.1128" stroke="#383733" stroke-linecap="round"/>
<path d="M33.7301 31.203C33.7301 31.203 35.0962 32.1172 36.1111 32.3308C37.0187 32.5219 38.492 32.3308 38.492 32.3308" stroke="#383733" stroke-linecap="round"/>
<path d="M30.5555 34.2106C30.5555 34.2106 32.4435 35.4184 33.7301 35.7143C34.9443 35.9936 36.9047 35.7143 36.9047 35.7143" stroke="#383733" stroke-linecap="round"/>
<path d="M28.5714 36.8422C28.5714 36.8422 30.3929 38.0611 31.746 38.3459C32.9563 38.6007 34.9206 38.3459 34.9206 38.3459" stroke="#383733" stroke-linecap="round"/>
<path d="M25.7937 40.2256C25.7937 40.2256 27.0701 41.1356 28.1747 41.3534C29.3978 41.5947 32.1429 41.3534 32.1429 41.3534" stroke="#383733" stroke-linecap="round"/>
<path d="M32.9365 40.6016C32.9365 40.6016 38.2572 38.2484 40.4762 39.8497C42.8699 41.577 39.3254 46.5625 42.0635 47.7444C43.4737 48.3531 50 44.7369 50 44.7369" stroke="#383733" stroke-linecap="round"/>
<path d="M20.135 2.25564C20.135 3.20012 19.3186 4.01128 18.254 4.01128C17.1894 4.01128 16.373 3.20012 16.373 2.25564C16.373 1.31115 17.1894 0.5 18.254 0.5C19.3186 0.5 20.135 1.31115 20.135 2.25564Z" fill="#98BBAD" stroke="#383733"/>
<path d="M17.0635 11.6541V4.13528C17.0635 4.13528 17.5189 4.06408 17.8571 4.13529C18.1597 4.19899 18.3482 4.19899 18.6508 4.13529C18.9891 4.06408 19.4444 4.13528 19.4444 4.13528V11.6541C19.4444 11.6541 19.1348 11.7265 18.6508 11.6541C18.1916 11.5854 17.0635 11.6541 17.0635 11.6541Z" fill="#98BBAD" stroke="#383733" stroke-linecap="round"/>
<path d="M31.7054 5.95109C31.27 6.83863 30.1692 7.24629 29.2416 6.84833C28.314 6.45036 27.9263 5.40407 28.3616 4.51654C28.797 3.62901 29.8979 3.22134 30.8255 3.61931C31.753 4.01727 32.1407 5.06356 31.7054 5.95109Z" fill="#98BBAD" stroke="#383733"/>
<path d="M25 12.4141L28.2092 6.49135C28.2092 6.49135 28.6432 6.60036 28.9107 6.79486C29.15 6.96882 29.3166 7.04091 29.6122 7.09835C29.9426 7.16256 30.3136 7.40183 30.3136 7.40183L27.3095 13.1583C27.3095 13.1583 26.7668 12.9368 26.1548 12.7862C25.7171 12.6785 25 12.4141 25 12.4141Z" fill="#98BBAD" stroke="#383733" stroke-linecap="round"/>
<path d="M17.0635 48.1203V45.8646H19.4444V48.1203C19.4444 48.1203 18.6508 50 18.254 50C17.8571 50 17.0635 48.1203 17.0635 48.1203Z" fill="#98BBAD" stroke="#383733" stroke-linecap="round"/>
<path d="M7.25012 44.115L8.33105 42.1052L10.4525 43.1293L9.37157 45.1391C9.37157 45.1391 7.76365 46.4725 7.41007 46.3019C7.0565 46.1312 7.25012 44.115 7.25012 44.115Z" fill="#98BBAD" stroke="#383733" stroke-linecap="round"/>
</svg>
