<svg width="36" height="36" viewBox="0 0 36 36" fill="none" xmlns="http://www.w3.org/2000/svg">
<g clip-path="url(#clip0_27_33)">
<path d="M0.5 3.91304C0.5 1.75193 2.3221 0 4.56977 0H31.4302C33.6779 0 35.5 1.75193 35.5 3.91304V32.087C35.5 34.2481 33.6779 36 31.4302 36H4.56977C2.3221 36 0.5 34.2481 0.5 32.087V3.91304Z" fill="url(#paint0_linear_27_33)"/>
<mask id="mask0_27_33" style="mask-type:luminance" maskUnits="userSpaceOnUse" x="0" y="0" width="36" height="36">
<path d="M0.5 3.91304C0.5 1.75193 2.3221 0 4.56977 0H31.4302C33.6779 0 35.5 1.75193 35.5 3.91304V32.087C35.5 34.2481 33.6779 36 31.4302 36H4.56977C2.3221 36 0.5 34.2481 0.5 32.087V3.91304Z" fill="white"/>
</mask>
<g mask="url(#mask0_27_33)">
<path d="M4.56977 0.782594H31.4302V-0.782623H4.56977V0.782594ZM34.6861 3.91303V32.0869H36.314V3.91303H34.6861ZM31.4302 35.2174H4.56977V36.7826H31.4302V35.2174ZM1.31396 32.0869V3.91303H-0.31395V32.0869H1.31396ZM4.56977 35.2174C2.77163 35.2174 1.31396 33.8158 1.31396 32.0869H-0.31395C-0.31395 34.6803 1.87257 36.7826 4.56977 36.7826V35.2174ZM34.6861 32.0869C34.6861 33.8158 33.2283 35.2174 31.4302 35.2174V36.7826C34.1274 36.7826 36.314 34.6803 36.314 32.0869H34.6861ZM31.4302 0.782594C33.2283 0.782594 34.6861 2.18414 34.6861 3.91303H36.314C36.314 1.31969 34.1274 -0.782623 31.4302 -0.782623V0.782594ZM4.56977 -0.782623C1.87257 -0.782623 -0.31395 1.31969 -0.31395 3.91303H1.31396C1.31396 2.18414 2.77163 0.782594 4.56977 0.782594V-0.782623Z" fill="#383733"/>
</g>
<path d="M8.55253 26.6087V13.8024H12.2466V26.6087H8.55253ZM10.4082 12.1516C9.85899 12.1516 9.38788 11.9765 8.99474 11.6263C8.60744 11.2706 8.41379 10.8454 8.41379 10.3507C8.41379 9.86157 8.60744 9.44186 8.99474 9.09172C9.38788 8.73594 9.85899 8.55814 10.4082 8.55814C10.9574 8.55814 11.4256 8.73594 11.813 9.09172C12.206 9.44186 12.4026 9.86157 12.4026 10.3507C12.4026 10.8454 12.206 11.2706 11.813 11.6263C11.4256 11.9765 10.9574 12.1516 10.4082 12.1516ZM18.8997 19.2051V26.6087H15.2056V13.8024H18.7262V16.0618H18.8823C19.1771 15.317 19.6714 14.7278 20.3651 14.2943C21.0588 13.8551 21.9 13.6356 22.8885 13.6356C23.8134 13.6356 24.6199 13.8302 25.3078 14.2192C25.9957 14.6083 26.5305 15.1641 26.912 15.8867C27.2936 16.6037 27.4843 17.4598 27.4843 18.4547V26.6087H23.7903V19.0883C23.7961 18.3046 23.5879 17.6932 23.166 17.2541C22.744 16.8094 22.163 16.5871 21.423 16.5871C20.9258 16.5871 20.4865 16.6899 20.105 16.8956C19.7292 17.1012 19.4344 17.4014 19.2205 17.796C19.0124 18.1851 18.9054 18.6547 18.8997 19.2051Z" fill="white"/>
<mask id="mask1_27_33" style="mask-type:luminance" maskUnits="userSpaceOnUse" x="7" y="7" width="22" height="21">
<path d="M28.9884 7.04349H7.01163V27.3913H28.9884V7.04349Z" fill="white"/>
<path d="M8.55253 26.6087V13.8024H12.2466V26.6087H8.55253ZM10.4082 12.1516C9.85899 12.1516 9.38788 11.9765 8.99474 11.6263C8.60744 11.2706 8.41379 10.8454 8.41379 10.3507C8.41379 9.86157 8.60744 9.44186 8.99474 9.09172C9.38788 8.73594 9.85899 8.55814 10.4082 8.55814C10.9574 8.55814 11.4256 8.73594 11.813 9.09172C12.206 9.44186 12.4026 9.86157 12.4026 10.3507C12.4026 10.8454 12.206 11.2706 11.813 11.6263C11.4256 11.9765 10.9574 12.1516 10.4082 12.1516ZM18.8997 19.2051V26.6087H15.2056V13.8024H18.7262V16.0618H18.8823C19.1771 15.317 19.6714 14.7278 20.3651 14.2943C21.0588 13.8551 21.9 13.6356 22.8885 13.6356C23.8134 13.6356 24.6199 13.8302 25.3078 14.2192C25.9957 14.6083 26.5305 15.1641 26.912 15.8867C27.2936 16.6037 27.4843 17.4598 27.4843 18.4547V26.6087H23.7903V19.0883C23.7961 18.3046 23.5879 17.6932 23.166 17.2541C22.744 16.8094 22.163 16.5871 21.423 16.5871C20.9258 16.5871 20.4865 16.6899 20.105 16.8956C19.7292 17.1012 19.4344 17.4014 19.2205 17.796C19.0124 18.1851 18.9054 18.6547 18.8997 19.2051Z" fill="black"/>
</mask>
<g mask="url(#mask1_27_33)">
<path d="M8.55253 26.6087H7.73858V27.3913H8.55253V26.6087ZM8.55253 13.8024V13.0198H7.73858V13.8024H8.55253ZM12.2466 13.8024H13.0605V13.0198H12.2466V13.8024ZM12.2466 26.6087V27.3913H13.0605V26.6087H12.2466ZM8.99474 11.6263L8.43255 12.1922L8.43704 12.1963L8.44159 12.2004L8.99474 11.6263ZM11.813 9.09173L11.2508 9.65763L11.2553 9.66178L11.2598 9.66577L11.813 9.09173ZM9.36648 26.6087V13.8024H7.73858V26.6087H9.36648ZM8.55253 14.585H12.2466V13.0198H8.55253V14.585ZM11.4326 13.8024V26.6087H13.0605V13.8024H11.4326ZM12.2466 25.8261H8.55253V27.3913H12.2466V25.8261ZM10.4082 11.369C10.0585 11.369 9.78648 11.2647 9.54799 11.0522L8.44159 12.2004C8.98929 12.6883 9.6595 12.9342 10.4082 12.9342V11.369ZM9.55702 11.0604C9.32301 10.8455 9.22778 10.6219 9.22778 10.3507H7.59984C7.59984 11.0688 7.89187 11.6956 8.43255 12.1922L9.55702 11.0604ZM9.22778 10.3507C9.22778 10.0881 9.32032 9.8716 9.55238 9.66186L8.43719 8.5216C7.89457 9.01214 7.59984 9.63494 7.59984 10.3507H9.22778ZM9.55238 9.66186C9.7916 9.44539 10.0623 9.34075 10.4082 9.34075V7.77551C9.65567 7.77551 8.98419 8.0266 8.43719 8.5216L9.55238 9.66186ZM10.4082 9.34075C10.7539 9.34075 11.019 9.44484 11.2508 9.65763L12.3752 8.52582C11.8323 8.02714 11.1609 7.77551 10.4082 7.77551V9.34075ZM11.2598 9.66577C11.4966 9.87676 11.5886 10.0922 11.5886 10.3507H13.2166C13.2166 9.63087 12.9156 9.00697 12.3661 8.51761L11.2598 9.66577ZM11.5886 10.3507C11.5886 10.6179 11.4938 10.8404 11.2551 11.0564L12.3705 12.1964C12.918 11.701 13.2166 11.0728 13.2166 10.3507H11.5886ZM11.2551 11.0564C11.0241 11.2652 10.7578 11.369 10.4082 11.369V12.9342C11.157 12.9342 11.8268 12.688 12.3705 12.1964L11.2551 11.0564ZM18.8997 19.2051L18.0857 19.1972V19.2051H18.8997ZM18.8997 26.6087V27.3913H19.7136V26.6087H18.8997ZM15.2056 26.6087H14.3917V27.3913H15.2056V26.6087ZM15.2056 13.8024V13.0198H14.3917V13.8024H15.2056ZM18.7262 13.8024H19.5402V13.0198H18.7262V13.8024ZM18.7262 16.0618H17.9123V16.8444H18.7262V16.0618ZM18.8823 16.0618V16.8444H19.4435L19.643 16.3402L18.8823 16.0618ZM20.3651 14.2943L20.8087 14.9505L20.8127 14.948L20.3651 14.2943ZM26.912 15.8867L26.1863 16.241L26.1874 16.2432L26.912 15.8867ZM27.4843 26.6087V27.3913H28.2983V26.6087H27.4843ZM23.7903 26.6087H22.9763V27.3913H23.7903V26.6087ZM23.7903 19.0883L22.9763 19.0827V19.0883H23.7903ZM23.166 17.2541L22.5647 17.7816L22.5681 17.7852L23.166 17.2541ZM20.105 16.8956L19.7069 16.2129L19.7023 16.2154L20.105 16.8956ZM19.2205 17.796L18.4986 17.4343L18.4967 17.4381L19.2205 17.796ZM18.0857 19.2051V26.6087H19.7136V19.2051H18.0857ZM18.8997 25.8261H15.2056V27.3913H18.8997V25.8261ZM16.0196 26.6087V13.8024H14.3917V26.6087H16.0196ZM15.2056 14.585H18.7262V13.0198H15.2056V14.585ZM17.9123 13.8024V16.0618H19.5402V13.8024H17.9123ZM18.7262 16.8444H18.8823V15.2792H18.7262V16.8444ZM19.643 16.3402C19.8766 15.7502 20.2599 15.2934 20.8087 14.9505L19.9215 13.6381C19.0829 14.1622 18.4777 14.8839 18.1216 15.7834L19.643 16.3402ZM20.8127 14.948C21.35 14.6079 22.0283 14.4182 22.8885 14.4182V12.853C21.7716 12.853 20.7677 13.1025 19.9175 13.6406L20.8127 14.948ZM22.8885 14.4182C23.6916 14.4182 24.351 14.586 24.8951 14.8938L25.7205 13.5447C24.8887 13.0743 23.9352 12.853 22.8885 12.853V14.4182ZM24.8951 14.8938C25.4413 15.2027 25.8709 15.644 26.1863 16.241L27.6378 15.5324C27.19 14.6844 26.5501 14.0139 25.7205 13.5447L24.8951 14.8938ZM26.1874 16.2432C26.498 16.827 26.6704 17.555 26.6704 18.4547H28.2983C28.2983 17.3644 28.0891 16.3806 27.6366 15.5302L26.1874 16.2432ZM26.6704 18.4547V26.6087H28.2983V18.4547H26.6704ZM27.4843 25.8261H23.7903V27.3913H27.4843V25.8261ZM24.6043 26.6087V19.0883H22.9763V26.6087H24.6043ZM24.6043 19.0939C24.611 18.175 24.3654 17.3489 23.7638 16.7229L22.5681 17.7852C22.8106 18.0375 22.9811 18.4343 22.9763 19.0827L24.6043 19.0939ZM23.7673 16.7265C23.1628 16.0897 22.3463 15.8045 21.423 15.8045V17.3697C21.9796 17.3697 22.3251 17.5291 22.5647 17.7816L23.7673 16.7265ZM21.423 15.8045C20.8058 15.8045 20.2259 15.9332 19.7069 16.2129L20.503 17.5783C20.7472 17.4466 21.0459 17.3697 21.423 17.3697V15.8045ZM19.7023 16.2154C19.1809 16.5008 18.7795 16.9161 18.4986 17.4343L19.9423 18.1577C20.0892 17.8867 20.2776 17.7016 20.5076 17.5757L19.7023 16.2154ZM18.4967 17.4381C18.2176 17.9598 18.0925 18.5557 18.0857 19.1972L19.7135 19.213C19.7184 18.7539 19.8071 18.4104 19.9444 18.1539L18.4967 17.4381Z" fill="#383733"/>
</g>
</g>
<defs>
<linearGradient id="paint0_linear_27_33" x1="2.12791" y1="19.1739" x2="50.9626" y2="17.9041" gradientUnits="userSpaceOnUse">
<stop stop-color="#00817D"/>
<stop offset="0.466584" stop-color="#8CBAC4"/>
</linearGradient>
<clipPath id="clip0_27_33">
<rect width="35" height="36" fill="white" transform="translate(0.5)"/>
</clipPath>
</defs>
</svg>
