<svg width="36" height="34" viewBox="0 0 36 34" fill="none" xmlns="http://www.w3.org/2000/svg">
<g clip-path="url(#clip0_32_38)">
<path d="M31.3152 0.923004H4.68478C2.79381 0.923004 1.26087 2.62777 1.26087 4.7307V29.2692C1.26087 31.3721 2.79381 33.0769 4.68478 33.0769H31.3152C33.2062 33.0769 34.7391 31.3721 34.7391 29.2692V4.7307C34.7391 2.62777 33.2062 0.923004 31.3152 0.923004Z" fill="url(#paint0_linear_32_38)"/>
<path d="M31.3152 0.923004H4.68478C2.79381 0.923004 1.26087 2.62777 1.26087 4.7307V29.2692C1.26087 31.3721 2.79381 33.0769 4.68478 33.0769H31.3152C33.2062 33.0769 34.7391 31.3721 34.7391 29.2692V4.7307C34.7391 2.62777 33.2062 0.923004 31.3152 0.923004Z" stroke="#383733"/>
<path d="M4.68478 7.26917H31.3152V13.6153V26.7307H4.68478V13.6153V7.26917Z" fill="white"/>
<path d="M4.68478 13.6153V26.7307H31.3152V13.6153M4.68478 13.6153V7.26917H31.3152V13.6153M4.68478 13.6153C4.68478 13.6153 17.1781 18.6922 18.1644 18.6922C19.1507 18.6923 31.3152 13.6153 31.3152 13.6153" stroke="#383733"/>
</g>
<defs>
<linearGradient id="paint0_linear_32_38" x1="2.78261" y1="16.5769" x2="88.7609" y2="16.5769" gradientUnits="userSpaceOnUse">
<stop stop-color="#F2C301"/>
<stop offset="1" stop-color="#F2C301" stop-opacity="0"/>
</linearGradient>
<clipPath id="clip0_32_38">
<rect width="35" height="33" fill="white" transform="translate(0.5 0.5)"/>
</clipPath>
</defs>
</svg>
