<svg width="36" height="36" viewBox="0 0 36 36" fill="none" xmlns="http://www.w3.org/2000/svg">
<path d="M31.125 4.875H32.125V3.875H31.125V4.875ZM15.8346 18.7512C15.444 19.1418 15.444 19.7749 15.8346 20.1654C16.2251 20.556 16.8582 20.556 17.2488 20.1654L15.8346 18.7512ZM19.4583 5.875L31.125 5.875V3.875L19.4583 3.875V5.875ZM30.125 4.875L30.125 16.5417H32.125V4.875H30.125ZM30.4179 4.16789L15.8346 18.7512L17.2488 20.1654L31.8321 5.58211L30.4179 4.16789Z" fill="#383733"/>
<path d="M13.6251 6.33325H12.3334C9.50499 6.33325 8.09077 6.33325 7.21209 7.21193C6.33341 8.09061 6.33341 9.50482 6.33341 12.3333L6.33341 23.6666C6.33341 26.495 6.33341 27.9092 7.21209 28.7879C8.09077 29.6666 9.50499 29.6666 12.3334 29.6666L23.6667 29.6666C26.4952 29.6666 27.9094 29.6666 28.7881 28.7879C29.6667 27.9092 29.6667 26.495 29.6667 23.6666V22.3749" stroke="#383733" stroke-width="2" stroke-linecap="round"/>
</svg>
