<svg width="66" height="65" viewBox="0 0 66 65" fill="none" xmlns="http://www.w3.org/2000/svg">
<path fill-rule="evenodd" clip-rule="evenodd" d="M48.466 22.2482C49.5031 17.5332 50.8068 8.78967 46.211 5.82534C41.6366 2.87393 35.684 8.52937 32.5407 11.924C29.4066 8.56319 23.2868 2.93193 18.6949 5.90568C14.1223 8.86698 15.5324 17.4655 16.5925 22.2101C12.3271 23.5655 5.01523 26.4847 5.01523 32.449C5.01523 38.3964 12.3195 41.5725 16.5597 42.9265C15.4956 47.6973 14.1562 56.1731 18.7346 59.1278C23.3436 62.101 29.4444 56.6037 32.6168 53.172C35.7802 56.5866 41.6757 62.1198 46.2509 59.1568C50.8405 56.1845 49.6452 47.5581 48.5849 42.7861C52.6953 41.429 60.0152 38.3222 60.0152 32.449C60.0152 26.542 52.6641 23.5991 48.466 22.2482ZM47.9449 40.2571C47.2488 37.7918 46.3092 35.1702 45.1599 32.4621C46.257 29.8179 47.1601 27.2302 47.8368 24.7807C50.9144 25.779 57.6658 28.0604 57.6658 32.449C57.6658 36.8788 51.187 39.1819 47.9449 40.2571ZM45.0736 56.8819C41.6599 59.0925 36.5891 53.8011 34.2529 51.2865C35.8028 49.3901 37.3516 47.1854 38.8631 44.7373C41.5222 44.4735 44.0341 44.042 46.3122 43.4528C47.0583 46.8283 48.5023 54.6614 45.0736 56.8819ZM19.9085 56.8504C16.4945 54.6481 18.055 47.0847 18.8378 43.5704C21.0905 44.1281 23.5843 44.5291 26.2496 44.7709C27.7711 47.1664 29.3648 49.3683 30.9708 51.2967C28.9866 53.444 23.3385 59.0629 19.9085 56.8504ZM7.36463 32.449C7.36463 28.0027 14.0757 25.7377 17.2235 24.742C17.9118 27.2464 18.8146 29.8651 19.9042 32.5131C18.8005 35.2005 17.8848 37.8606 17.1901 40.3946C14.1887 39.4334 7.36463 36.8981 7.36463 32.449ZM19.872 8.18056C23.3 5.96072 28.6188 11.3669 30.8944 13.8003C29.2966 15.7198 27.7176 17.9051 26.2091 20.2868C23.6225 20.5551 21.1463 20.9857 18.8699 21.5628C18.0159 17.7361 16.4477 10.398 19.872 8.18056ZM40.5439 23.1439C42.2988 23.3916 43.9802 23.7212 45.5588 24.1243C45.0849 25.8238 44.4942 27.601 43.7985 29.4227C42.79 27.282 41.7074 25.1842 40.5439 23.1439ZM32.5414 15.6787C33.6251 16.9921 34.7105 18.4587 35.7782 20.0499C33.6125 19.9352 31.4433 19.9348 29.2776 20.0482C30.3462 18.4718 31.4409 17.0073 32.5414 15.6787ZM21.2521 29.4208C20.5679 27.6054 19.9825 25.8205 19.5045 24.0966C21.0737 23.7038 22.7472 23.3827 24.4907 23.139C23.324 25.1748 22.2432 27.2718 21.2521 29.4208ZM24.5408 41.9467C22.7397 41.7218 21.0409 41.417 19.4721 41.0349C19.9577 39.2809 20.556 37.4574 21.2548 35.6028C22.2596 37.7743 23.3568 39.8916 24.5408 41.9467ZM32.6065 49.4051C31.493 48.0608 30.3821 46.5739 29.2974 44.9746C31.4754 45.0702 33.6576 45.0705 35.8354 44.9617C34.7644 46.5901 33.6829 48.0792 32.6065 49.4051ZM43.8208 35.5085C44.556 37.3831 45.1757 39.1967 45.6679 40.9211C44.0731 41.3283 42.3514 41.6562 40.5373 41.8997C41.7094 39.8207 42.8092 37.6903 43.8208 35.5085ZM37.5519 42.2183C34.2204 42.4846 30.8682 42.4817 27.5355 42.2401C25.6419 39.1455 23.9561 35.891 22.501 32.5123C23.9492 29.1406 25.6226 25.8924 27.5073 22.8027C30.8423 22.5207 34.1979 22.5198 37.5329 22.8043C39.4014 25.8939 41.0723 29.1336 42.554 32.4748C41.0899 35.8448 39.4076 39.0996 37.5519 42.2183ZM45.0374 8.10242C48.4663 10.315 46.9401 18.173 46.191 21.5901C43.9092 21.001 41.4313 20.5627 38.8371 20.2902C37.3257 17.8828 35.7599 15.6936 34.188 13.7989C36.4926 11.3132 41.6417 5.9115 45.0374 8.10242Z" fill="#383733"/>
<path d="M37.9567 32.451C37.9567 29.5374 35.5207 27.175 32.5152 27.175C29.5102 27.175 27.0737 29.5374 27.0737 32.451C27.0737 35.365 29.5102 37.7272 32.5152 37.7272C35.5207 37.7272 37.9567 35.365 37.9567 32.451Z" fill="#383733"/>
</svg>
