<svg width="66" height="65" viewBox="0 0 66 65" fill="none" xmlns="http://www.w3.org/2000/svg">
<path d="M41.1956 41.4276C42.8563 41.2466 44.1161 39.7385 44.0587 37.929C44.0015 36.1194 42.5698 34.6715 40.8519 34.6715H40.7373C38.9622 34.732 37.5879 36.3003 37.6451 38.1702C37.7024 39.0751 38.0459 39.8593 38.5614 40.4022C36.6144 44.4438 33.6367 47.3995 29.1701 49.8727C26.135 51.5616 22.9854 52.1648 19.8359 51.7426C17.259 51.3806 15.2547 50.1742 13.9949 48.1837C12.1624 45.228 11.9906 42.0308 13.5368 38.8338C14.6248 36.5416 16.3427 34.8525 17.4308 34.0081C17.2017 33.2239 16.8581 31.8968 16.6863 30.9317C8.38298 37.2655 9.24194 45.8312 11.7616 49.8727C13.6513 52.8887 17.488 54.7588 21.7256 54.7588C22.8709 54.7588 24.0162 54.638 25.1615 54.3365C32.4912 52.8285 38.0459 48.2439 41.1956 41.4276ZM51.2741 33.9476C46.922 28.5791 40.5084 25.6233 33.1784 25.6233H32.2623C31.7469 24.5375 30.6588 23.8137 29.4564 23.8137H29.3418C27.5666 23.874 26.1922 25.4424 26.2495 27.3123C26.3067 29.1221 27.7384 30.5697 29.4564 30.5697H29.5707C30.8306 30.5094 31.9186 29.6648 32.3767 28.5188H33.4076C37.7596 28.5188 41.8828 29.8458 45.6048 32.4397C48.4681 34.4303 50.5295 37.0241 51.6749 40.1608C52.6484 42.6945 52.5911 45.1675 51.5604 47.2788C49.9569 50.4759 47.2655 52.2253 43.7152 52.2253C41.4245 52.2253 39.2486 51.5013 38.1033 50.9584C37.4733 51.5616 36.3281 52.5268 35.5263 53.13C37.9887 54.3365 40.5084 55 42.9134 55C48.4108 55 52.4765 51.803 54.0226 48.6059C55.6833 45.1072 55.5689 39.0751 51.2741 33.9476ZM22.1837 42.453C22.241 44.2628 23.6726 45.7104 25.3905 45.7104H25.505C27.2802 45.6502 28.6546 44.0818 28.5973 42.2118C28.5401 40.4022 27.1085 38.9544 25.3905 38.9544H25.276C25.1615 38.9544 24.9897 38.9544 24.8751 39.0148C22.5273 34.9128 21.5538 30.449 21.8974 25.6233C22.1264 22.004 23.2717 18.8673 25.276 16.2734C26.9366 14.0415 30.1434 12.9558 32.3195 12.8954C38.3896 12.7748 40.9664 20.7373 41.1382 23.9343C41.8827 24.1153 43.1426 24.5375 44.0015 24.8391C43.3143 15.067 37.5879 10 32.0904 10C26.9366 10 22.1837 13.9209 20.294 19.7118C17.6598 27.433 19.3777 34.8525 22.5846 40.7037C22.2982 41.1259 22.1264 41.7896 22.1837 42.453Z" fill="#383733"/>
</svg>
