<svg width="85" height="65" viewBox="0 0 85 65" fill="none" xmlns="http://www.w3.org/2000/svg">
<path d="M65.9437 35.8686C66.0229 35.8667 66.1163 35.8648 66.2118 35.8648C67.9059 35.8648 69.5085 36.2286 70.9304 36.8774L70.8674 36.8511C72.1634 37.4343 73.2277 38.2968 73.9976 39.3543L74.0159 39.3806C74.6232 40.1981 74.9848 41.2088 74.9848 42.2963C74.9848 42.3751 74.9827 42.4539 74.9787 42.5307V42.5195C74.9157 43.6051 74.3815 44.5633 73.5609 45.2346L73.5568 45.2383C73.1079 45.6452 72.5655 45.964 71.9623 46.1665L71.9318 46.1759C71.5933 46.2384 71.407 46.1915 71.3732 46.0353C71.3393 45.879 71.4917 45.7071 71.8302 45.5196C72.7484 45.0058 73.4126 44.177 73.6543 43.2001L73.6604 43.1758C73.6665 43.097 73.6705 43.0051 73.6705 42.9114C73.6705 42.3282 73.5202 41.7769 73.2541 41.2894L73.2643 41.3101C72.8235 40.4606 72.1654 39.7631 71.3549 39.2587L71.3346 39.2475C70.1219 38.5274 68.6676 38.0549 67.1035 37.9368L67.071 37.9349C66.5388 37.8618 65.9254 37.8205 65.2998 37.8205C63.6727 37.8205 62.1188 38.1037 60.6888 38.6193L60.7741 38.5912C61.0687 39.2268 61.2535 39.9637 61.2799 40.7363V40.7457C61.2474 42.3301 60.3252 43.7083 58.9541 44.4771L58.9318 44.4883C58.3021 44.9008 57.583 45.2627 56.8173 45.544L56.7462 45.5665C56.281 45.7765 55.7346 45.8984 55.1577 45.8984C55.0907 45.8984 55.0257 45.8965 54.9607 45.8927H54.9709C53.6857 45.644 53.3811 44.6127 54.0568 42.7989C54.3513 42.0095 54.7637 41.3251 55.2857 40.7232L55.2735 40.7363C55.9418 39.93 56.6751 39.2231 57.4855 38.5968L57.5079 38.5799L57.3088 38.3062C56.9371 37.7212 56.5959 37.0405 56.3216 36.3298L56.2932 36.2436C56.0901 35.6186 55.9208 35.0254 55.7854 34.4641L55.6838 33.8079L54.6682 35.5873C53.788 37.0874 52.9416 38.3993 52.1291 39.5231L51.8244 39.9919C52.1657 40.7569 52.4176 41.6438 52.5313 42.5701L52.5354 42.617C52.5435 42.7051 52.5476 42.8101 52.5476 42.9151C52.5476 44.3364 51.7879 45.5927 50.6219 46.3596L50.6077 46.369C50.0512 46.6859 49.3869 47.014 48.6983 47.3066L48.5765 47.3534C47.8594 47.6403 47.0287 47.8278 46.1573 47.8691H46.139C46.0719 47.8728 45.9927 47.8766 45.9135 47.8766C45.4057 47.8766 44.9243 47.7697 44.4937 47.5803L44.514 47.5878C44.256 47.3834 44.0935 47.0834 44.0935 46.7478C44.0935 46.5771 44.1362 46.414 44.2113 46.2696L44.2073 46.2771C45.0198 45.2252 45.8201 44.3102 46.6712 43.4364L46.6448 43.4645L48.8791 40.8413L48.4749 39.9975C48.1499 39.4462 47.8391 38.7956 47.5893 38.1205L47.5609 38.0305C47.3577 37.4055 47.1885 36.8124 47.053 36.2511L46.9515 35.5948L45.9359 37.8449C45.1247 39.5937 44.3799 41.0932 43.7015 42.3432C42.6899 44.2183 41.8436 45.6559 41.1624 46.6559L40.9593 46.9372C40.1481 48.1235 39.3695 48.7166 38.6234 48.7166C37.8772 48.7166 37.3714 48.2791 37.106 47.4041C36.911 46.759 36.7973 46.0184 36.7973 45.2533C36.7973 45.1858 36.7973 45.1183 36.7993 45.0508V45.0602L37.0024 43.7477V43.8414C36.4607 45.0277 35.9191 46.1209 35.3774 47.1209C35.0179 47.7697 34.6482 48.3228 34.2338 48.8441L34.2602 48.8085C33.8418 49.2135 33.2527 49.4648 32.6007 49.4648C32.5946 49.4648 32.5905 49.4648 32.5844 49.4648C32.5418 49.4685 32.493 49.4685 32.4443 49.4685C31.9304 49.4685 31.4632 49.2885 31.1098 48.9941L31.1118 48.996C30.4029 48.3247 29.8768 47.4866 29.6046 46.5509L29.5944 46.5115C29.2613 45.6584 29.0704 44.6721 29.0704 43.6445C29.0704 43.5114 29.0744 43.3801 29.0805 43.2508V43.2695C29.241 41.7769 29.564 40.41 30.0373 39.1068L29.9946 39.24L26.3404 41.2088V41.3026C26.8705 42.3188 27.1813 43.5114 27.1813 44.7715C27.1813 45.0021 27.1712 45.2308 27.1509 45.4559L27.1529 45.4258C27.0452 47.3572 26.3769 49.1254 25.2984 50.6198L25.3248 50.5823C24.1934 52.2399 22.5623 53.5206 20.6244 54.2612L20.5574 54.2837C19.4666 54.7356 18.191 55 16.8504 55C16.0013 55 15.1766 54.895 14.3966 54.6962L14.4616 54.7094C13.8157 54.5087 13.2876 54.1112 12.9524 53.5974L12.9463 53.5862C12.473 52.9524 12.1744 52.178 12.1277 51.3436V51.3323C12.1054 51.143 12.0932 50.9236 12.0932 50.7004C12.0932 49.7385 12.3309 48.8272 12.7554 48.0153L12.7371 48.0528C13.903 46.2171 15.5159 44.7302 17.4415 43.6839L17.5024 43.6539C18.8654 42.782 20.4315 41.9363 22.0666 41.1994L22.2819 41.1113L22.7898 40.83C22.1804 40.3925 21.0632 39.6425 19.4382 38.5799C17.2668 37.2374 15.3798 35.8817 13.6004 34.4154L13.6512 34.4566C11.9307 33.0897 10.6774 31.2634 10.1148 29.1839L10.0985 29.1127C10.0457 28.8239 10.0152 28.492 10.0152 28.1545C10.0152 27.097 10.3098 26.1032 10.8257 25.2388L10.8094 25.2706C11.9469 23.013 13.5232 21.1098 15.4569 19.5798L15.4813 19.561C17.5735 17.7366 19.9419 16.1484 22.5135 14.8621L22.6902 14.7814C24.9876 13.557 27.6709 12.4189 30.4679 11.5057L30.8132 11.4082C33.4112 10.5306 36.4113 10.0169 39.5394 10.0075H39.5435C39.6857 10.0038 39.8543 10 40.0229 10C42.5437 10 44.9284 10.5381 47.049 11.4963L46.9555 11.4569C48.7837 12.2257 50.1527 13.6733 50.7012 15.4434L50.7134 15.4884C50.8819 16.0921 50.9774 16.7859 50.9774 17.5003C50.9774 18.6854 50.7113 19.8142 50.234 20.838L50.2563 20.7836C49.3869 22.728 48.1499 24.3837 46.6062 25.7469L46.6001 25.7525C45.036 27.1832 43.1612 28.327 41.0791 29.0902L40.9674 29.1258C38.7859 29.9902 36.2529 30.534 33.594 30.624L33.5554 30.6259C33.1654 30.6671 32.7144 30.6896 32.2574 30.6896C31.0549 30.6896 29.8951 30.5302 28.7982 30.2321L28.8855 30.2527C27.9044 29.964 27.0574 29.5158 26.3384 28.9345L26.3465 28.9402C25.8427 28.5614 25.4324 28.0945 25.1399 27.5639L25.1277 27.5395C24.9246 27.0395 24.9077 26.7426 25.0769 26.6488C25.2462 26.5551 25.3647 26.5394 25.4324 26.6019L25.9402 27.0707C26.5069 27.5564 27.1834 27.9389 27.9309 28.1826L27.9715 28.1939C28.9993 28.5239 30.1855 28.7152 31.4185 28.7152C31.8146 28.7152 32.2046 28.6964 32.5885 28.657L32.5418 28.6608C35.8284 28.3026 38.7919 27.2676 41.3493 25.7113L41.2741 25.7544C43.4354 24.5675 45.1843 22.9362 46.4152 20.9917L46.4518 20.928C47.0632 20.0992 47.4288 19.0754 47.4288 17.9728C47.4288 17.2959 47.2907 16.6472 47.0388 16.0509L47.053 16.0865C46.2934 14.9783 45.0644 14.1983 43.6304 13.9827L43.6019 13.9789C42.4888 13.7258 41.2091 13.5795 39.8949 13.5795C38.8366 13.5795 37.8007 13.6733 36.7993 13.8533L36.9009 13.8383C33.4741 14.4083 30.411 15.3852 27.5855 16.7278L27.7704 16.6472C19.445 20.5223 15.1462 24.4906 14.874 28.552V28.6439C14.874 30.2808 15.5707 31.7678 16.7062 32.8666L16.7041 32.8647C17.998 34.1923 19.428 35.3642 20.9901 36.3767L21.0693 36.4255C22.4932 37.408 23.7526 38.4224 24.9246 39.5175L24.9266 39.5212L25.1298 39.7087L31.6298 36.4292C32.3712 35.4392 33.2629 34.6029 34.2866 33.9279L34.3191 33.9072C35.1316 33.2772 36.1635 32.8666 37.2949 32.7841L37.3132 32.7822C37.3538 32.7784 37.4005 32.7784 37.4493 32.7784C38.2069 32.7784 38.8569 33.2003 39.1373 33.8041L39.1413 33.8154C39.3546 34.256 39.4785 34.7717 39.4785 35.3136C39.4785 35.4786 39.4663 35.6417 39.444 35.8029L39.446 35.7842L39.249 36.7086L39.5537 36.5211C39.7649 36.373 40.031 36.2848 40.3194 36.2848C40.5023 36.2848 40.6749 36.3205 40.8313 36.3842L40.8232 36.3805C41.2132 36.4742 41.4955 36.7967 41.4955 37.1793C41.4955 37.2449 41.4874 37.3086 41.4712 37.3705L41.4732 37.3649L41.1685 38.3962C40.5591 40.645 40.1536 42.2695 39.9518 43.2695C39.8502 43.5939 39.7934 43.967 39.7934 44.3533C39.7934 44.4339 39.7954 44.5127 39.8015 44.5914V44.5802C39.8353 44.9552 39.8861 45.1427 39.9538 45.1427C40.0215 45.1427 40.1563 44.9552 40.358 44.5802L40.6627 43.9239C40.7304 43.9239 40.7304 43.9552 40.6627 44.0177L41.7799 41.8613C44.4205 36.4886 45.8417 33.4885 46.0435 32.861L46.6529 31.0815C46.7206 30.9565 46.9914 30.8321 47.4654 30.7084C47.9468 30.5884 48.4973 30.519 49.066 30.519C49.1127 30.519 49.1594 30.519 49.2041 30.5209H49.198C50.146 30.5209 50.6199 30.7396 50.6199 31.1771L50.5183 31.6459C50.2909 32.2234 50.0654 32.9453 49.8907 33.6841L49.8684 33.8022C49.8277 34.0441 49.8034 34.3216 49.8034 34.6066C49.8034 34.9854 49.844 35.3548 49.9232 35.7129L49.9171 35.6773L50.0187 36.0505C50.2259 36.8324 50.5407 37.5186 50.953 38.1449L50.9327 38.113C51.7439 36.8642 52.5225 35.5836 53.2687 34.271C53.8577 33.3653 54.4062 32.3153 54.8469 31.2165L54.8937 31.0853C55.046 30.3783 55.2207 29.7821 55.434 29.2008L55.4015 29.3058C55.4692 29.1183 55.7583 28.9777 56.2688 28.8839C56.7523 28.7939 57.3068 28.7433 57.8735 28.7433H57.9466H57.9426C58.8905 28.7433 59.3963 28.962 59.4599 29.3996L59.2568 29.7727C59.0151 30.4027 58.8038 31.1603 58.6616 31.9384L58.6494 32.0228C58.6312 32.2047 58.619 32.4147 58.619 32.6284C58.619 33.0766 58.6677 33.5154 58.7591 33.9391L58.751 33.896V34.2691C58.9846 35.0867 59.3319 35.8048 59.7869 36.4555L59.7666 36.4255L60.0713 37.0818C61.7674 36.313 63.7621 35.863 65.8705 35.863H65.9498H65.9457L65.9437 35.8686ZM22.3957 49.4685C23.8074 48.1222 24.6788 46.2846 24.6788 44.2596C24.6788 43.4776 24.5488 42.7239 24.3091 42.0151L24.3254 42.0676L22.7004 43.0051C21.0429 43.877 19.6088 44.8502 18.3109 45.9565L18.3271 45.9434C17.3419 46.7797 16.6148 47.8616 16.2573 49.0823L16.2451 49.1291C15.9404 50.2854 16.0927 51.0355 16.7021 51.3792C17.0738 51.5367 17.5105 51.6286 17.9676 51.6286C18.4673 51.6286 18.9405 51.5199 19.3569 51.3248L19.3387 51.3323C20.5452 50.9273 21.5669 50.2842 22.3794 49.461L22.3855 49.4554L22.3957 49.4685ZM35.999 40.8357C36.3375 40.0231 36.7099 39.0543 37.1162 37.9293C37.6578 36.4292 37.844 35.5548 37.6748 35.3061C37.5055 35.0573 37.1839 35.026 36.7099 35.2123C36.1452 35.4654 35.6719 35.8123 35.2941 36.238L35.288 36.2455C34.8655 36.7386 34.4634 37.2899 34.1059 37.8693L34.0693 37.933C33.659 38.5537 33.3116 39.2681 33.0699 40.0256L33.0516 40.0894C32.6596 41.07 32.4321 42.2045 32.4321 43.3858C32.4321 43.5451 32.4362 43.7027 32.4443 43.8602V43.8377C32.512 45.0865 32.7287 45.7584 33.0943 45.8534C33.4599 45.9484 33.8831 45.4952 34.3638 44.4939C34.829 43.7195 35.2434 42.8195 35.5521 41.8763L35.5805 41.7751C35.7823 41.3326 35.9204 41.0194 35.9949 40.8357H35.999ZM47.2643 45.8046C48.6719 45.2215 49.6632 43.9933 49.8013 42.5401L49.8034 42.5251V42.4314L48.6862 43.7439L46.6569 45.8065C46.6265 45.829 46.6062 45.8627 46.6062 45.9002C46.6062 45.9377 46.6265 45.9715 46.6549 45.994C46.7199 46.0552 46.923 45.9927 47.2643 45.8065V45.8046ZM55.9966 44.0233C57.5323 43.6183 58.6373 42.3338 58.6373 40.8132C58.6373 40.7888 58.6373 40.7644 58.6373 40.74V40.7438C58.6169 40.3688 58.5438 40.0163 58.424 39.6825L58.4321 39.7106C57.6419 40.3594 56.994 41.1357 56.5248 42.0113L56.5024 42.0545C55.8917 43.1783 55.7211 43.8333 55.9905 44.0195L55.9966 44.0233Z" fill="#383733"/>
</svg>
