<svg width="36" height="36" viewBox="0 0 36 36" fill="none" xmlns="http://www.w3.org/2000/svg">
<g clip-path="url(#clip0_164_171)">
<path d="M30.9554 0.888885H4.38889C2.45589 0.888885 0.888885 2.45589 0.888885 4.38889V31.2754C0.888885 33.2084 2.45589 34.7754 4.38889 34.7754H30.9554C32.8884 34.7754 34.4554 33.2084 34.4554 31.2754V4.38889C34.4554 2.45589 32.8884 0.888885 30.9554 0.888885Z" fill="url(#paint0_linear_164_171)"/>
<path d="M30.9554 0.888885H4.38889C2.45589 0.888885 0.888885 2.45589 0.888885 4.38889V31.2754C0.888885 33.2084 2.45589 34.7754 4.38889 34.7754H30.9554C32.8884 34.7754 34.4554 33.2084 34.4554 31.2754V4.38889C34.4554 2.45589 32.8884 0.888885 30.9554 0.888885Z" stroke="#383733"/>
<path d="M30.8883 4.42718C30.1105 3.6808 3.61183 14.0787 4.4064 15.2778C5.20097 16.4769 11.4417 21.1439 12.2195 21.1124C12.9973 21.081 23.8883 11.0697 24.6661 11.4272C25.4439 11.7847 14.555 23.0556 14.555 23.0556C14.555 23.0556 13.7772 31.6808 14.555 31.2605C15.3328 30.8403 16.8861 26.1994 17.6639 26.168C18.4417 26.1366 23.8883 31.2605 24.6661 31.2605C25.4439 31.2605 31.6661 5.17356 30.8883 4.42718Z" fill="white" stroke="#383733"/>
</g>
<defs>
<linearGradient id="paint0_linear_164_171" x1="0.499997" y1="17.614" x2="33.6335" y2="17.614" gradientUnits="userSpaceOnUse">
<stop stop-color="#00817D"/>
<stop offset="0.571" stop-color="#90C9CA"/>
<stop offset="1" stop-color="#E7F4F9"/>
</linearGradient>
<clipPath id="clip0_164_171">
<rect width="35" height="35" fill="white" transform="translate(0.5 0.5)"/>
</clipPath>
</defs>
</svg>
