<svg width="66" height="65" viewBox="0 0 66 65" fill="none" xmlns="http://www.w3.org/2000/svg">
<path d="M28.2459 49.5H28.7459V49V34.6332H33.6372H34.1372V34.1332V31.033V30.533H33.6372H19.0943H18.5943V31.033V34.1332V34.6332H19.0943H23.9857V49V49.5H24.4857H28.2459ZM34.916 44.2502L34.9161 44.2517C35.0316 45.9925 35.8372 47.4386 37.1983 48.4381C38.5486 49.4297 40.4141 49.9608 42.6366 49.9608C44.956 49.9608 46.8899 49.378 48.2545 48.278C49.6311 47.1685 50.3831 45.5678 50.3831 43.6459V43.6336C50.3831 42.1225 49.9306 40.8991 48.9213 39.9588C47.9342 39.0392 46.4652 38.4385 44.5306 38.0388L44.5287 38.0384L42.6253 37.653C42.6251 37.6529 42.6248 37.6529 42.6246 37.6528C41.5905 37.4398 40.9344 37.1756 40.5435 36.8716C40.1849 36.5928 40.0361 36.2726 40.0361 35.839V35.8267C40.0361 35.3282 40.2557 34.928 40.6728 34.6335C41.1049 34.3285 41.7667 34.1289 42.6256 34.1229C44.3785 34.1234 45.3234 34.9338 45.4802 35.8833L45.4803 35.884L45.5052 36.0334L45.5749 36.4512H45.9984H49.5345H50.0749L50.033 35.9124L50.0204 35.7504L50.0204 35.7499C49.8917 34.1161 49.1516 32.6823 47.8688 31.6639C46.591 30.6495 44.8082 30.0722 42.624 30.0722C40.5438 30.0722 38.7145 30.6474 37.3941 31.7003C36.0648 32.7603 35.2759 34.2877 35.2759 36.1129V36.1255C35.2759 37.5957 35.7133 38.8489 36.6917 39.8309C37.6564 40.799 39.0988 41.4548 41.0176 41.845C41.0176 41.845 41.0177 41.8451 41.0178 41.8451L42.9089 42.2305C42.9092 42.2306 42.9094 42.2307 42.9097 42.2307C44.0065 42.4575 44.6955 42.7204 45.1045 43.0236C45.4753 43.2985 45.6229 43.6093 45.6229 44.0443V44.0569C45.6229 44.5603 45.3786 45.0011 44.8968 45.3345C44.4048 45.6749 43.6651 45.8978 42.7362 45.8978C41.7503 45.8978 40.9571 45.6841 40.411 45.349C39.8724 45.0185 39.5856 44.5816 39.5356 44.094C39.5356 44.0937 39.5356 44.0934 39.5355 44.0932L39.5234 43.9702L39.4789 43.5194H39.0258H35.4024H34.8698L34.9034 44.051L34.916 44.2502ZM10.5152 10.5H54.5152V54.5H10.5152V10.5Z" fill="#007ACC" stroke="#383733"/>
</svg>
